%TF.GenerationSoftware,KiCad,Pcbnew,7.0.6*%
%TF.CreationDate,2023-07-25T17:39:36+01:00*%
%TF.ProjectId,Coursework,436f7572-7365-4776-9f72-6b2e6b696361,rev?*%
%TF.SameCoordinates,Original*%
%TF.FileFunction,Legend,Top*%
%TF.FilePolarity,Positive*%
%FSLAX46Y46*%
G04 Gerber Fmt 4.6, Leading zero omitted, Abs format (unit mm)*
G04 Created by KiCad (PCBNEW 7.0.6) date 2023-07-25 17:39:36*
%MOMM*%
%LPD*%
G01*
G04 APERTURE LIST*
%ADD10C,0.150000*%
%ADD11C,0.120000*%
G04 APERTURE END LIST*
D10*
X90482561Y-97760588D02*
X90530180Y-97665350D01*
X90530180Y-97665350D02*
X90530180Y-97522493D01*
X90530180Y-97522493D02*
X90482561Y-97379636D01*
X90482561Y-97379636D02*
X90387323Y-97284398D01*
X90387323Y-97284398D02*
X90292085Y-97236779D01*
X90292085Y-97236779D02*
X90101609Y-97189160D01*
X90101609Y-97189160D02*
X89958752Y-97189160D01*
X89958752Y-97189160D02*
X89768276Y-97236779D01*
X89768276Y-97236779D02*
X89673038Y-97284398D01*
X89673038Y-97284398D02*
X89577800Y-97379636D01*
X89577800Y-97379636D02*
X89530180Y-97522493D01*
X89530180Y-97522493D02*
X89530180Y-97617731D01*
X89530180Y-97617731D02*
X89577800Y-97760588D01*
X89577800Y-97760588D02*
X89625419Y-97808207D01*
X89625419Y-97808207D02*
X89958752Y-97808207D01*
X89958752Y-97808207D02*
X89958752Y-97617731D01*
X89530180Y-98236779D02*
X90530180Y-98236779D01*
X90530180Y-98236779D02*
X89530180Y-98808207D01*
X89530180Y-98808207D02*
X90530180Y-98808207D01*
X89530180Y-99284398D02*
X90530180Y-99284398D01*
X90530180Y-99284398D02*
X90530180Y-99522493D01*
X90530180Y-99522493D02*
X90482561Y-99665350D01*
X90482561Y-99665350D02*
X90387323Y-99760588D01*
X90387323Y-99760588D02*
X90292085Y-99808207D01*
X90292085Y-99808207D02*
X90101609Y-99855826D01*
X90101609Y-99855826D02*
X89958752Y-99855826D01*
X89958752Y-99855826D02*
X89768276Y-99808207D01*
X89768276Y-99808207D02*
X89673038Y-99760588D01*
X89673038Y-99760588D02*
X89577800Y-99665350D01*
X89577800Y-99665350D02*
X89530180Y-99522493D01*
X89530180Y-99522493D02*
X89530180Y-99284398D01*
X94782561Y-84860588D02*
X94830180Y-84765350D01*
X94830180Y-84765350D02*
X94830180Y-84622493D01*
X94830180Y-84622493D02*
X94782561Y-84479636D01*
X94782561Y-84479636D02*
X94687323Y-84384398D01*
X94687323Y-84384398D02*
X94592085Y-84336779D01*
X94592085Y-84336779D02*
X94401609Y-84289160D01*
X94401609Y-84289160D02*
X94258752Y-84289160D01*
X94258752Y-84289160D02*
X94068276Y-84336779D01*
X94068276Y-84336779D02*
X93973038Y-84384398D01*
X93973038Y-84384398D02*
X93877800Y-84479636D01*
X93877800Y-84479636D02*
X93830180Y-84622493D01*
X93830180Y-84622493D02*
X93830180Y-84717731D01*
X93830180Y-84717731D02*
X93877800Y-84860588D01*
X93877800Y-84860588D02*
X93925419Y-84908207D01*
X93925419Y-84908207D02*
X94258752Y-84908207D01*
X94258752Y-84908207D02*
X94258752Y-84717731D01*
X93830180Y-85336779D02*
X94830180Y-85336779D01*
X94830180Y-85336779D02*
X93830180Y-85908207D01*
X93830180Y-85908207D02*
X94830180Y-85908207D01*
X93830180Y-86384398D02*
X94830180Y-86384398D01*
X94830180Y-86384398D02*
X94830180Y-86622493D01*
X94830180Y-86622493D02*
X94782561Y-86765350D01*
X94782561Y-86765350D02*
X94687323Y-86860588D01*
X94687323Y-86860588D02*
X94592085Y-86908207D01*
X94592085Y-86908207D02*
X94401609Y-86955826D01*
X94401609Y-86955826D02*
X94258752Y-86955826D01*
X94258752Y-86955826D02*
X94068276Y-86908207D01*
X94068276Y-86908207D02*
X93973038Y-86860588D01*
X93973038Y-86860588D02*
X93877800Y-86765350D01*
X93877800Y-86765350D02*
X93830180Y-86622493D01*
X93830180Y-86622493D02*
X93830180Y-86384398D01*
X101860588Y-134417438D02*
X101765350Y-134369819D01*
X101765350Y-134369819D02*
X101622493Y-134369819D01*
X101622493Y-134369819D02*
X101479636Y-134417438D01*
X101479636Y-134417438D02*
X101384398Y-134512676D01*
X101384398Y-134512676D02*
X101336779Y-134607914D01*
X101336779Y-134607914D02*
X101289160Y-134798390D01*
X101289160Y-134798390D02*
X101289160Y-134941247D01*
X101289160Y-134941247D02*
X101336779Y-135131723D01*
X101336779Y-135131723D02*
X101384398Y-135226961D01*
X101384398Y-135226961D02*
X101479636Y-135322200D01*
X101479636Y-135322200D02*
X101622493Y-135369819D01*
X101622493Y-135369819D02*
X101717731Y-135369819D01*
X101717731Y-135369819D02*
X101860588Y-135322200D01*
X101860588Y-135322200D02*
X101908207Y-135274580D01*
X101908207Y-135274580D02*
X101908207Y-134941247D01*
X101908207Y-134941247D02*
X101717731Y-134941247D01*
X102336779Y-135369819D02*
X102336779Y-134369819D01*
X102336779Y-134369819D02*
X102908207Y-135369819D01*
X102908207Y-135369819D02*
X102908207Y-134369819D01*
X103384398Y-135369819D02*
X103384398Y-134369819D01*
X103384398Y-134369819D02*
X103622493Y-134369819D01*
X103622493Y-134369819D02*
X103765350Y-134417438D01*
X103765350Y-134417438D02*
X103860588Y-134512676D01*
X103860588Y-134512676D02*
X103908207Y-134607914D01*
X103908207Y-134607914D02*
X103955826Y-134798390D01*
X103955826Y-134798390D02*
X103955826Y-134941247D01*
X103955826Y-134941247D02*
X103908207Y-135131723D01*
X103908207Y-135131723D02*
X103860588Y-135226961D01*
X103860588Y-135226961D02*
X103765350Y-135322200D01*
X103765350Y-135322200D02*
X103622493Y-135369819D01*
X103622493Y-135369819D02*
X103384398Y-135369819D01*
X167017438Y-93439411D02*
X166969819Y-93534649D01*
X166969819Y-93534649D02*
X166969819Y-93677506D01*
X166969819Y-93677506D02*
X167017438Y-93820363D01*
X167017438Y-93820363D02*
X167112676Y-93915601D01*
X167112676Y-93915601D02*
X167207914Y-93963220D01*
X167207914Y-93963220D02*
X167398390Y-94010839D01*
X167398390Y-94010839D02*
X167541247Y-94010839D01*
X167541247Y-94010839D02*
X167731723Y-93963220D01*
X167731723Y-93963220D02*
X167826961Y-93915601D01*
X167826961Y-93915601D02*
X167922200Y-93820363D01*
X167922200Y-93820363D02*
X167969819Y-93677506D01*
X167969819Y-93677506D02*
X167969819Y-93582268D01*
X167969819Y-93582268D02*
X167922200Y-93439411D01*
X167922200Y-93439411D02*
X167874580Y-93391792D01*
X167874580Y-93391792D02*
X167541247Y-93391792D01*
X167541247Y-93391792D02*
X167541247Y-93582268D01*
X167969819Y-92963220D02*
X166969819Y-92963220D01*
X166969819Y-92963220D02*
X167969819Y-92391792D01*
X167969819Y-92391792D02*
X166969819Y-92391792D01*
X167969819Y-91915601D02*
X166969819Y-91915601D01*
X166969819Y-91915601D02*
X166969819Y-91677506D01*
X166969819Y-91677506D02*
X167017438Y-91534649D01*
X167017438Y-91534649D02*
X167112676Y-91439411D01*
X167112676Y-91439411D02*
X167207914Y-91391792D01*
X167207914Y-91391792D02*
X167398390Y-91344173D01*
X167398390Y-91344173D02*
X167541247Y-91344173D01*
X167541247Y-91344173D02*
X167731723Y-91391792D01*
X167731723Y-91391792D02*
X167826961Y-91439411D01*
X167826961Y-91439411D02*
X167922200Y-91534649D01*
X167922200Y-91534649D02*
X167969819Y-91677506D01*
X167969819Y-91677506D02*
X167969819Y-91915601D01*
X150778572Y-62809819D02*
X151111905Y-63809819D01*
X151111905Y-63809819D02*
X151445238Y-62809819D01*
X151778572Y-63809819D02*
X151778572Y-62809819D01*
X152254762Y-63809819D02*
X152254762Y-62809819D01*
X152254762Y-62809819D02*
X152635714Y-62809819D01*
X152635714Y-62809819D02*
X152730952Y-62857438D01*
X152730952Y-62857438D02*
X152778571Y-62905057D01*
X152778571Y-62905057D02*
X152826190Y-63000295D01*
X152826190Y-63000295D02*
X152826190Y-63143152D01*
X152826190Y-63143152D02*
X152778571Y-63238390D01*
X152778571Y-63238390D02*
X152730952Y-63286009D01*
X152730952Y-63286009D02*
X152635714Y-63333628D01*
X152635714Y-63333628D02*
X152254762Y-63333628D01*
X148254762Y-65419819D02*
X148254762Y-64419819D01*
X148254762Y-64419819D02*
X148635714Y-64419819D01*
X148635714Y-64419819D02*
X148730952Y-64467438D01*
X148730952Y-64467438D02*
X148778571Y-64515057D01*
X148778571Y-64515057D02*
X148826190Y-64610295D01*
X148826190Y-64610295D02*
X148826190Y-64753152D01*
X148826190Y-64753152D02*
X148778571Y-64848390D01*
X148778571Y-64848390D02*
X148730952Y-64896009D01*
X148730952Y-64896009D02*
X148635714Y-64943628D01*
X148635714Y-64943628D02*
X148254762Y-64943628D01*
X149207143Y-64515057D02*
X149254762Y-64467438D01*
X149254762Y-64467438D02*
X149350000Y-64419819D01*
X149350000Y-64419819D02*
X149588095Y-64419819D01*
X149588095Y-64419819D02*
X149683333Y-64467438D01*
X149683333Y-64467438D02*
X149730952Y-64515057D01*
X149730952Y-64515057D02*
X149778571Y-64610295D01*
X149778571Y-64610295D02*
X149778571Y-64705533D01*
X149778571Y-64705533D02*
X149730952Y-64848390D01*
X149730952Y-64848390D02*
X149159524Y-65419819D01*
X149159524Y-65419819D02*
X149778571Y-65419819D01*
X150635714Y-64419819D02*
X150445238Y-64419819D01*
X150445238Y-64419819D02*
X150350000Y-64467438D01*
X150350000Y-64467438D02*
X150302381Y-64515057D01*
X150302381Y-64515057D02*
X150207143Y-64657914D01*
X150207143Y-64657914D02*
X150159524Y-64848390D01*
X150159524Y-64848390D02*
X150159524Y-65229342D01*
X150159524Y-65229342D02*
X150207143Y-65324580D01*
X150207143Y-65324580D02*
X150254762Y-65372200D01*
X150254762Y-65372200D02*
X150350000Y-65419819D01*
X150350000Y-65419819D02*
X150540476Y-65419819D01*
X150540476Y-65419819D02*
X150635714Y-65372200D01*
X150635714Y-65372200D02*
X150683333Y-65324580D01*
X150683333Y-65324580D02*
X150730952Y-65229342D01*
X150730952Y-65229342D02*
X150730952Y-64991247D01*
X150730952Y-64991247D02*
X150683333Y-64896009D01*
X150683333Y-64896009D02*
X150635714Y-64848390D01*
X150635714Y-64848390D02*
X150540476Y-64800771D01*
X150540476Y-64800771D02*
X150350000Y-64800771D01*
X150350000Y-64800771D02*
X150254762Y-64848390D01*
X150254762Y-64848390D02*
X150207143Y-64896009D01*
X150207143Y-64896009D02*
X150159524Y-64991247D01*
X151635714Y-64419819D02*
X151159524Y-64419819D01*
X151159524Y-64419819D02*
X151111905Y-64896009D01*
X151111905Y-64896009D02*
X151159524Y-64848390D01*
X151159524Y-64848390D02*
X151254762Y-64800771D01*
X151254762Y-64800771D02*
X151492857Y-64800771D01*
X151492857Y-64800771D02*
X151588095Y-64848390D01*
X151588095Y-64848390D02*
X151635714Y-64896009D01*
X151635714Y-64896009D02*
X151683333Y-64991247D01*
X151683333Y-64991247D02*
X151683333Y-65229342D01*
X151683333Y-65229342D02*
X151635714Y-65324580D01*
X151635714Y-65324580D02*
X151588095Y-65372200D01*
X151588095Y-65372200D02*
X151492857Y-65419819D01*
X151492857Y-65419819D02*
X151254762Y-65419819D01*
X151254762Y-65419819D02*
X151159524Y-65372200D01*
X151159524Y-65372200D02*
X151111905Y-65324580D01*
X152588095Y-64419819D02*
X152111905Y-64419819D01*
X152111905Y-64419819D02*
X152064286Y-64896009D01*
X152064286Y-64896009D02*
X152111905Y-64848390D01*
X152111905Y-64848390D02*
X152207143Y-64800771D01*
X152207143Y-64800771D02*
X152445238Y-64800771D01*
X152445238Y-64800771D02*
X152540476Y-64848390D01*
X152540476Y-64848390D02*
X152588095Y-64896009D01*
X152588095Y-64896009D02*
X152635714Y-64991247D01*
X152635714Y-64991247D02*
X152635714Y-65229342D01*
X152635714Y-65229342D02*
X152588095Y-65324580D01*
X152588095Y-65324580D02*
X152540476Y-65372200D01*
X152540476Y-65372200D02*
X152445238Y-65419819D01*
X152445238Y-65419819D02*
X152207143Y-65419819D01*
X152207143Y-65419819D02*
X152111905Y-65372200D01*
X152111905Y-65372200D02*
X152064286Y-65324580D01*
X153588095Y-65419819D02*
X153016667Y-65419819D01*
X153302381Y-65419819D02*
X153302381Y-64419819D01*
X153302381Y-64419819D02*
X153207143Y-64562676D01*
X153207143Y-64562676D02*
X153111905Y-64657914D01*
X153111905Y-64657914D02*
X153016667Y-64705533D01*
X154159524Y-64848390D02*
X154064286Y-64800771D01*
X154064286Y-64800771D02*
X154016667Y-64753152D01*
X154016667Y-64753152D02*
X153969048Y-64657914D01*
X153969048Y-64657914D02*
X153969048Y-64610295D01*
X153969048Y-64610295D02*
X154016667Y-64515057D01*
X154016667Y-64515057D02*
X154064286Y-64467438D01*
X154064286Y-64467438D02*
X154159524Y-64419819D01*
X154159524Y-64419819D02*
X154350000Y-64419819D01*
X154350000Y-64419819D02*
X154445238Y-64467438D01*
X154445238Y-64467438D02*
X154492857Y-64515057D01*
X154492857Y-64515057D02*
X154540476Y-64610295D01*
X154540476Y-64610295D02*
X154540476Y-64657914D01*
X154540476Y-64657914D02*
X154492857Y-64753152D01*
X154492857Y-64753152D02*
X154445238Y-64800771D01*
X154445238Y-64800771D02*
X154350000Y-64848390D01*
X154350000Y-64848390D02*
X154159524Y-64848390D01*
X154159524Y-64848390D02*
X154064286Y-64896009D01*
X154064286Y-64896009D02*
X154016667Y-64943628D01*
X154016667Y-64943628D02*
X153969048Y-65038866D01*
X153969048Y-65038866D02*
X153969048Y-65229342D01*
X153969048Y-65229342D02*
X154016667Y-65324580D01*
X154016667Y-65324580D02*
X154064286Y-65372200D01*
X154064286Y-65372200D02*
X154159524Y-65419819D01*
X154159524Y-65419819D02*
X154350000Y-65419819D01*
X154350000Y-65419819D02*
X154445238Y-65372200D01*
X154445238Y-65372200D02*
X154492857Y-65324580D01*
X154492857Y-65324580D02*
X154540476Y-65229342D01*
X154540476Y-65229342D02*
X154540476Y-65038866D01*
X154540476Y-65038866D02*
X154492857Y-64943628D01*
X154492857Y-64943628D02*
X154445238Y-64896009D01*
X154445238Y-64896009D02*
X154350000Y-64848390D01*
X154873810Y-64419819D02*
X155492857Y-64419819D01*
X155492857Y-64419819D02*
X155159524Y-64800771D01*
X155159524Y-64800771D02*
X155302381Y-64800771D01*
X155302381Y-64800771D02*
X155397619Y-64848390D01*
X155397619Y-64848390D02*
X155445238Y-64896009D01*
X155445238Y-64896009D02*
X155492857Y-64991247D01*
X155492857Y-64991247D02*
X155492857Y-65229342D01*
X155492857Y-65229342D02*
X155445238Y-65324580D01*
X155445238Y-65324580D02*
X155397619Y-65372200D01*
X155397619Y-65372200D02*
X155302381Y-65419819D01*
X155302381Y-65419819D02*
X155016667Y-65419819D01*
X155016667Y-65419819D02*
X154921429Y-65372200D01*
X154921429Y-65372200D02*
X154873810Y-65324580D01*
X144666666Y-82454819D02*
X144666666Y-83169104D01*
X144666666Y-83169104D02*
X144619047Y-83311961D01*
X144619047Y-83311961D02*
X144523809Y-83407200D01*
X144523809Y-83407200D02*
X144380952Y-83454819D01*
X144380952Y-83454819D02*
X144285714Y-83454819D01*
X145047619Y-82454819D02*
X145714285Y-82454819D01*
X145714285Y-82454819D02*
X145285714Y-83454819D01*
X143683333Y-91159580D02*
X143635714Y-91207200D01*
X143635714Y-91207200D02*
X143492857Y-91254819D01*
X143492857Y-91254819D02*
X143397619Y-91254819D01*
X143397619Y-91254819D02*
X143254762Y-91207200D01*
X143254762Y-91207200D02*
X143159524Y-91111961D01*
X143159524Y-91111961D02*
X143111905Y-91016723D01*
X143111905Y-91016723D02*
X143064286Y-90826247D01*
X143064286Y-90826247D02*
X143064286Y-90683390D01*
X143064286Y-90683390D02*
X143111905Y-90492914D01*
X143111905Y-90492914D02*
X143159524Y-90397676D01*
X143159524Y-90397676D02*
X143254762Y-90302438D01*
X143254762Y-90302438D02*
X143397619Y-90254819D01*
X143397619Y-90254819D02*
X143492857Y-90254819D01*
X143492857Y-90254819D02*
X143635714Y-90302438D01*
X143635714Y-90302438D02*
X143683333Y-90350057D01*
X144540476Y-90588152D02*
X144540476Y-91254819D01*
X144302381Y-90207200D02*
X144064286Y-90921485D01*
X144064286Y-90921485D02*
X144683333Y-90921485D01*
X144633333Y-126934819D02*
X144300000Y-126458628D01*
X144061905Y-126934819D02*
X144061905Y-125934819D01*
X144061905Y-125934819D02*
X144442857Y-125934819D01*
X144442857Y-125934819D02*
X144538095Y-125982438D01*
X144538095Y-125982438D02*
X144585714Y-126030057D01*
X144585714Y-126030057D02*
X144633333Y-126125295D01*
X144633333Y-126125295D02*
X144633333Y-126268152D01*
X144633333Y-126268152D02*
X144585714Y-126363390D01*
X144585714Y-126363390D02*
X144538095Y-126411009D01*
X144538095Y-126411009D02*
X144442857Y-126458628D01*
X144442857Y-126458628D02*
X144061905Y-126458628D01*
X145014286Y-126030057D02*
X145061905Y-125982438D01*
X145061905Y-125982438D02*
X145157143Y-125934819D01*
X145157143Y-125934819D02*
X145395238Y-125934819D01*
X145395238Y-125934819D02*
X145490476Y-125982438D01*
X145490476Y-125982438D02*
X145538095Y-126030057D01*
X145538095Y-126030057D02*
X145585714Y-126125295D01*
X145585714Y-126125295D02*
X145585714Y-126220533D01*
X145585714Y-126220533D02*
X145538095Y-126363390D01*
X145538095Y-126363390D02*
X144966667Y-126934819D01*
X144966667Y-126934819D02*
X145585714Y-126934819D01*
X95854819Y-104142857D02*
X95378628Y-104476190D01*
X95854819Y-104714285D02*
X94854819Y-104714285D01*
X94854819Y-104714285D02*
X94854819Y-104333333D01*
X94854819Y-104333333D02*
X94902438Y-104238095D01*
X94902438Y-104238095D02*
X94950057Y-104190476D01*
X94950057Y-104190476D02*
X95045295Y-104142857D01*
X95045295Y-104142857D02*
X95188152Y-104142857D01*
X95188152Y-104142857D02*
X95283390Y-104190476D01*
X95283390Y-104190476D02*
X95331009Y-104238095D01*
X95331009Y-104238095D02*
X95378628Y-104333333D01*
X95378628Y-104333333D02*
X95378628Y-104714285D01*
X94950057Y-103761904D02*
X94902438Y-103714285D01*
X94902438Y-103714285D02*
X94854819Y-103619047D01*
X94854819Y-103619047D02*
X94854819Y-103380952D01*
X94854819Y-103380952D02*
X94902438Y-103285714D01*
X94902438Y-103285714D02*
X94950057Y-103238095D01*
X94950057Y-103238095D02*
X95045295Y-103190476D01*
X95045295Y-103190476D02*
X95140533Y-103190476D01*
X95140533Y-103190476D02*
X95283390Y-103238095D01*
X95283390Y-103238095D02*
X95854819Y-103809523D01*
X95854819Y-103809523D02*
X95854819Y-103190476D01*
X95854819Y-102238095D02*
X95854819Y-102809523D01*
X95854819Y-102523809D02*
X94854819Y-102523809D01*
X94854819Y-102523809D02*
X94997676Y-102619047D01*
X94997676Y-102619047D02*
X95092914Y-102714285D01*
X95092914Y-102714285D02*
X95140533Y-102809523D01*
X134714819Y-123061904D02*
X135524342Y-123061904D01*
X135524342Y-123061904D02*
X135619580Y-123014285D01*
X135619580Y-123014285D02*
X135667200Y-122966666D01*
X135667200Y-122966666D02*
X135714819Y-122871428D01*
X135714819Y-122871428D02*
X135714819Y-122680952D01*
X135714819Y-122680952D02*
X135667200Y-122585714D01*
X135667200Y-122585714D02*
X135619580Y-122538095D01*
X135619580Y-122538095D02*
X135524342Y-122490476D01*
X135524342Y-122490476D02*
X134714819Y-122490476D01*
X134714819Y-121538095D02*
X134714819Y-122014285D01*
X134714819Y-122014285D02*
X135191009Y-122061904D01*
X135191009Y-122061904D02*
X135143390Y-122014285D01*
X135143390Y-122014285D02*
X135095771Y-121919047D01*
X135095771Y-121919047D02*
X135095771Y-121680952D01*
X135095771Y-121680952D02*
X135143390Y-121585714D01*
X135143390Y-121585714D02*
X135191009Y-121538095D01*
X135191009Y-121538095D02*
X135286247Y-121490476D01*
X135286247Y-121490476D02*
X135524342Y-121490476D01*
X135524342Y-121490476D02*
X135619580Y-121538095D01*
X135619580Y-121538095D02*
X135667200Y-121585714D01*
X135667200Y-121585714D02*
X135714819Y-121680952D01*
X135714819Y-121680952D02*
X135714819Y-121919047D01*
X135714819Y-121919047D02*
X135667200Y-122014285D01*
X135667200Y-122014285D02*
X135619580Y-122061904D01*
X91666666Y-102909819D02*
X91666666Y-103624104D01*
X91666666Y-103624104D02*
X91619047Y-103766961D01*
X91619047Y-103766961D02*
X91523809Y-103862200D01*
X91523809Y-103862200D02*
X91380952Y-103909819D01*
X91380952Y-103909819D02*
X91285714Y-103909819D01*
X92047619Y-102909819D02*
X92666666Y-102909819D01*
X92666666Y-102909819D02*
X92333333Y-103290771D01*
X92333333Y-103290771D02*
X92476190Y-103290771D01*
X92476190Y-103290771D02*
X92571428Y-103338390D01*
X92571428Y-103338390D02*
X92619047Y-103386009D01*
X92619047Y-103386009D02*
X92666666Y-103481247D01*
X92666666Y-103481247D02*
X92666666Y-103719342D01*
X92666666Y-103719342D02*
X92619047Y-103814580D01*
X92619047Y-103814580D02*
X92571428Y-103862200D01*
X92571428Y-103862200D02*
X92476190Y-103909819D01*
X92476190Y-103909819D02*
X92190476Y-103909819D01*
X92190476Y-103909819D02*
X92095238Y-103862200D01*
X92095238Y-103862200D02*
X92047619Y-103814580D01*
X113634819Y-113928094D02*
X112634819Y-113928094D01*
X112634819Y-113928094D02*
X112634819Y-113689999D01*
X112634819Y-113689999D02*
X112682438Y-113547142D01*
X112682438Y-113547142D02*
X112777676Y-113451904D01*
X112777676Y-113451904D02*
X112872914Y-113404285D01*
X112872914Y-113404285D02*
X113063390Y-113356666D01*
X113063390Y-113356666D02*
X113206247Y-113356666D01*
X113206247Y-113356666D02*
X113396723Y-113404285D01*
X113396723Y-113404285D02*
X113491961Y-113451904D01*
X113491961Y-113451904D02*
X113587200Y-113547142D01*
X113587200Y-113547142D02*
X113634819Y-113689999D01*
X113634819Y-113689999D02*
X113634819Y-113928094D01*
X112634819Y-113023332D02*
X112634819Y-112356666D01*
X112634819Y-112356666D02*
X113634819Y-112785237D01*
X113954819Y-117261904D02*
X112954819Y-117261904D01*
X113954819Y-116690476D02*
X113383390Y-117119047D01*
X112954819Y-116690476D02*
X113526247Y-117261904D01*
X91666666Y-80049819D02*
X91666666Y-80764104D01*
X91666666Y-80764104D02*
X91619047Y-80906961D01*
X91619047Y-80906961D02*
X91523809Y-81002200D01*
X91523809Y-81002200D02*
X91380952Y-81049819D01*
X91380952Y-81049819D02*
X91285714Y-81049819D01*
X92095238Y-80145057D02*
X92142857Y-80097438D01*
X92142857Y-80097438D02*
X92238095Y-80049819D01*
X92238095Y-80049819D02*
X92476190Y-80049819D01*
X92476190Y-80049819D02*
X92571428Y-80097438D01*
X92571428Y-80097438D02*
X92619047Y-80145057D01*
X92619047Y-80145057D02*
X92666666Y-80240295D01*
X92666666Y-80240295D02*
X92666666Y-80335533D01*
X92666666Y-80335533D02*
X92619047Y-80478390D01*
X92619047Y-80478390D02*
X92047619Y-81049819D01*
X92047619Y-81049819D02*
X92666666Y-81049819D01*
X101061905Y-114834819D02*
X101061905Y-113834819D01*
X101061905Y-113834819D02*
X101300000Y-113834819D01*
X101300000Y-113834819D02*
X101442857Y-113882438D01*
X101442857Y-113882438D02*
X101538095Y-113977676D01*
X101538095Y-113977676D02*
X101585714Y-114072914D01*
X101585714Y-114072914D02*
X101633333Y-114263390D01*
X101633333Y-114263390D02*
X101633333Y-114406247D01*
X101633333Y-114406247D02*
X101585714Y-114596723D01*
X101585714Y-114596723D02*
X101538095Y-114691961D01*
X101538095Y-114691961D02*
X101442857Y-114787200D01*
X101442857Y-114787200D02*
X101300000Y-114834819D01*
X101300000Y-114834819D02*
X101061905Y-114834819D01*
X102585714Y-114834819D02*
X102014286Y-114834819D01*
X102300000Y-114834819D02*
X102300000Y-113834819D01*
X102300000Y-113834819D02*
X102204762Y-113977676D01*
X102204762Y-113977676D02*
X102109524Y-114072914D01*
X102109524Y-114072914D02*
X102014286Y-114120533D01*
X97728095Y-115154819D02*
X97728095Y-114154819D01*
X98299523Y-115154819D02*
X97870952Y-114583390D01*
X98299523Y-114154819D02*
X97728095Y-114726247D01*
X135133333Y-96059580D02*
X135085714Y-96107200D01*
X135085714Y-96107200D02*
X134942857Y-96154819D01*
X134942857Y-96154819D02*
X134847619Y-96154819D01*
X134847619Y-96154819D02*
X134704762Y-96107200D01*
X134704762Y-96107200D02*
X134609524Y-96011961D01*
X134609524Y-96011961D02*
X134561905Y-95916723D01*
X134561905Y-95916723D02*
X134514286Y-95726247D01*
X134514286Y-95726247D02*
X134514286Y-95583390D01*
X134514286Y-95583390D02*
X134561905Y-95392914D01*
X134561905Y-95392914D02*
X134609524Y-95297676D01*
X134609524Y-95297676D02*
X134704762Y-95202438D01*
X134704762Y-95202438D02*
X134847619Y-95154819D01*
X134847619Y-95154819D02*
X134942857Y-95154819D01*
X134942857Y-95154819D02*
X135085714Y-95202438D01*
X135085714Y-95202438D02*
X135133333Y-95250057D01*
X135466667Y-95154819D02*
X136085714Y-95154819D01*
X136085714Y-95154819D02*
X135752381Y-95535771D01*
X135752381Y-95535771D02*
X135895238Y-95535771D01*
X135895238Y-95535771D02*
X135990476Y-95583390D01*
X135990476Y-95583390D02*
X136038095Y-95631009D01*
X136038095Y-95631009D02*
X136085714Y-95726247D01*
X136085714Y-95726247D02*
X136085714Y-95964342D01*
X136085714Y-95964342D02*
X136038095Y-96059580D01*
X136038095Y-96059580D02*
X135990476Y-96107200D01*
X135990476Y-96107200D02*
X135895238Y-96154819D01*
X135895238Y-96154819D02*
X135609524Y-96154819D01*
X135609524Y-96154819D02*
X135514286Y-96107200D01*
X135514286Y-96107200D02*
X135466667Y-96059580D01*
X106884819Y-137633333D02*
X107599104Y-137633333D01*
X107599104Y-137633333D02*
X107741961Y-137680952D01*
X107741961Y-137680952D02*
X107837200Y-137776190D01*
X107837200Y-137776190D02*
X107884819Y-137919047D01*
X107884819Y-137919047D02*
X107884819Y-138014285D01*
X107218152Y-136728571D02*
X107884819Y-136728571D01*
X106837200Y-136966666D02*
X107551485Y-137204761D01*
X107551485Y-137204761D02*
X107551485Y-136585714D01*
X146374819Y-111342857D02*
X145898628Y-111676190D01*
X146374819Y-111914285D02*
X145374819Y-111914285D01*
X145374819Y-111914285D02*
X145374819Y-111533333D01*
X145374819Y-111533333D02*
X145422438Y-111438095D01*
X145422438Y-111438095D02*
X145470057Y-111390476D01*
X145470057Y-111390476D02*
X145565295Y-111342857D01*
X145565295Y-111342857D02*
X145708152Y-111342857D01*
X145708152Y-111342857D02*
X145803390Y-111390476D01*
X145803390Y-111390476D02*
X145851009Y-111438095D01*
X145851009Y-111438095D02*
X145898628Y-111533333D01*
X145898628Y-111533333D02*
X145898628Y-111914285D01*
X145470057Y-110961904D02*
X145422438Y-110914285D01*
X145422438Y-110914285D02*
X145374819Y-110819047D01*
X145374819Y-110819047D02*
X145374819Y-110580952D01*
X145374819Y-110580952D02*
X145422438Y-110485714D01*
X145422438Y-110485714D02*
X145470057Y-110438095D01*
X145470057Y-110438095D02*
X145565295Y-110390476D01*
X145565295Y-110390476D02*
X145660533Y-110390476D01*
X145660533Y-110390476D02*
X145803390Y-110438095D01*
X145803390Y-110438095D02*
X146374819Y-111009523D01*
X146374819Y-111009523D02*
X146374819Y-110390476D01*
X145374819Y-109771428D02*
X145374819Y-109676190D01*
X145374819Y-109676190D02*
X145422438Y-109580952D01*
X145422438Y-109580952D02*
X145470057Y-109533333D01*
X145470057Y-109533333D02*
X145565295Y-109485714D01*
X145565295Y-109485714D02*
X145755771Y-109438095D01*
X145755771Y-109438095D02*
X145993866Y-109438095D01*
X145993866Y-109438095D02*
X146184342Y-109485714D01*
X146184342Y-109485714D02*
X146279580Y-109533333D01*
X146279580Y-109533333D02*
X146327200Y-109580952D01*
X146327200Y-109580952D02*
X146374819Y-109676190D01*
X146374819Y-109676190D02*
X146374819Y-109771428D01*
X146374819Y-109771428D02*
X146327200Y-109866666D01*
X146327200Y-109866666D02*
X146279580Y-109914285D01*
X146279580Y-109914285D02*
X146184342Y-109961904D01*
X146184342Y-109961904D02*
X145993866Y-110009523D01*
X145993866Y-110009523D02*
X145755771Y-110009523D01*
X145755771Y-110009523D02*
X145565295Y-109961904D01*
X145565295Y-109961904D02*
X145470057Y-109914285D01*
X145470057Y-109914285D02*
X145422438Y-109866666D01*
X145422438Y-109866666D02*
X145374819Y-109771428D01*
X131070833Y-105459580D02*
X131023214Y-105507200D01*
X131023214Y-105507200D02*
X130880357Y-105554819D01*
X130880357Y-105554819D02*
X130785119Y-105554819D01*
X130785119Y-105554819D02*
X130642262Y-105507200D01*
X130642262Y-105507200D02*
X130547024Y-105411961D01*
X130547024Y-105411961D02*
X130499405Y-105316723D01*
X130499405Y-105316723D02*
X130451786Y-105126247D01*
X130451786Y-105126247D02*
X130451786Y-104983390D01*
X130451786Y-104983390D02*
X130499405Y-104792914D01*
X130499405Y-104792914D02*
X130547024Y-104697676D01*
X130547024Y-104697676D02*
X130642262Y-104602438D01*
X130642262Y-104602438D02*
X130785119Y-104554819D01*
X130785119Y-104554819D02*
X130880357Y-104554819D01*
X130880357Y-104554819D02*
X131023214Y-104602438D01*
X131023214Y-104602438D02*
X131070833Y-104650057D01*
X131975595Y-104554819D02*
X131499405Y-104554819D01*
X131499405Y-104554819D02*
X131451786Y-105031009D01*
X131451786Y-105031009D02*
X131499405Y-104983390D01*
X131499405Y-104983390D02*
X131594643Y-104935771D01*
X131594643Y-104935771D02*
X131832738Y-104935771D01*
X131832738Y-104935771D02*
X131927976Y-104983390D01*
X131927976Y-104983390D02*
X131975595Y-105031009D01*
X131975595Y-105031009D02*
X132023214Y-105126247D01*
X132023214Y-105126247D02*
X132023214Y-105364342D01*
X132023214Y-105364342D02*
X131975595Y-105459580D01*
X131975595Y-105459580D02*
X131927976Y-105507200D01*
X131927976Y-105507200D02*
X131832738Y-105554819D01*
X131832738Y-105554819D02*
X131594643Y-105554819D01*
X131594643Y-105554819D02*
X131499405Y-105507200D01*
X131499405Y-105507200D02*
X131451786Y-105459580D01*
X95954819Y-93766666D02*
X95478628Y-94099999D01*
X95954819Y-94338094D02*
X94954819Y-94338094D01*
X94954819Y-94338094D02*
X94954819Y-93957142D01*
X94954819Y-93957142D02*
X95002438Y-93861904D01*
X95002438Y-93861904D02*
X95050057Y-93814285D01*
X95050057Y-93814285D02*
X95145295Y-93766666D01*
X95145295Y-93766666D02*
X95288152Y-93766666D01*
X95288152Y-93766666D02*
X95383390Y-93814285D01*
X95383390Y-93814285D02*
X95431009Y-93861904D01*
X95431009Y-93861904D02*
X95478628Y-93957142D01*
X95478628Y-93957142D02*
X95478628Y-94338094D01*
X94954819Y-93433332D02*
X94954819Y-92766666D01*
X94954819Y-92766666D02*
X95954819Y-93195237D01*
X149554819Y-120242857D02*
X149078628Y-120576190D01*
X149554819Y-120814285D02*
X148554819Y-120814285D01*
X148554819Y-120814285D02*
X148554819Y-120433333D01*
X148554819Y-120433333D02*
X148602438Y-120338095D01*
X148602438Y-120338095D02*
X148650057Y-120290476D01*
X148650057Y-120290476D02*
X148745295Y-120242857D01*
X148745295Y-120242857D02*
X148888152Y-120242857D01*
X148888152Y-120242857D02*
X148983390Y-120290476D01*
X148983390Y-120290476D02*
X149031009Y-120338095D01*
X149031009Y-120338095D02*
X149078628Y-120433333D01*
X149078628Y-120433333D02*
X149078628Y-120814285D01*
X149554819Y-119290476D02*
X149554819Y-119861904D01*
X149554819Y-119576190D02*
X148554819Y-119576190D01*
X148554819Y-119576190D02*
X148697676Y-119671428D01*
X148697676Y-119671428D02*
X148792914Y-119766666D01*
X148792914Y-119766666D02*
X148840533Y-119861904D01*
X149554819Y-118338095D02*
X149554819Y-118909523D01*
X149554819Y-118623809D02*
X148554819Y-118623809D01*
X148554819Y-118623809D02*
X148697676Y-118719047D01*
X148697676Y-118719047D02*
X148792914Y-118814285D01*
X148792914Y-118814285D02*
X148840533Y-118909523D01*
X97224819Y-126656904D02*
X98034342Y-126656904D01*
X98034342Y-126656904D02*
X98129580Y-126609285D01*
X98129580Y-126609285D02*
X98177200Y-126561666D01*
X98177200Y-126561666D02*
X98224819Y-126466428D01*
X98224819Y-126466428D02*
X98224819Y-126275952D01*
X98224819Y-126275952D02*
X98177200Y-126180714D01*
X98177200Y-126180714D02*
X98129580Y-126133095D01*
X98129580Y-126133095D02*
X98034342Y-126085476D01*
X98034342Y-126085476D02*
X97224819Y-126085476D01*
X97558152Y-125180714D02*
X98224819Y-125180714D01*
X97177200Y-125418809D02*
X97891485Y-125656904D01*
X97891485Y-125656904D02*
X97891485Y-125037857D01*
X128234819Y-113928094D02*
X127234819Y-113928094D01*
X127234819Y-113928094D02*
X127234819Y-113689999D01*
X127234819Y-113689999D02*
X127282438Y-113547142D01*
X127282438Y-113547142D02*
X127377676Y-113451904D01*
X127377676Y-113451904D02*
X127472914Y-113404285D01*
X127472914Y-113404285D02*
X127663390Y-113356666D01*
X127663390Y-113356666D02*
X127806247Y-113356666D01*
X127806247Y-113356666D02*
X127996723Y-113404285D01*
X127996723Y-113404285D02*
X128091961Y-113451904D01*
X128091961Y-113451904D02*
X128187200Y-113547142D01*
X128187200Y-113547142D02*
X128234819Y-113689999D01*
X128234819Y-113689999D02*
X128234819Y-113928094D01*
X127234819Y-113023332D02*
X127234819Y-112404285D01*
X127234819Y-112404285D02*
X127615771Y-112737618D01*
X127615771Y-112737618D02*
X127615771Y-112594761D01*
X127615771Y-112594761D02*
X127663390Y-112499523D01*
X127663390Y-112499523D02*
X127711009Y-112451904D01*
X127711009Y-112451904D02*
X127806247Y-112404285D01*
X127806247Y-112404285D02*
X128044342Y-112404285D01*
X128044342Y-112404285D02*
X128139580Y-112451904D01*
X128139580Y-112451904D02*
X128187200Y-112499523D01*
X128187200Y-112499523D02*
X128234819Y-112594761D01*
X128234819Y-112594761D02*
X128234819Y-112880475D01*
X128234819Y-112880475D02*
X128187200Y-112975713D01*
X128187200Y-112975713D02*
X128139580Y-113023332D01*
X128554819Y-117261904D02*
X127554819Y-117261904D01*
X128554819Y-116690476D02*
X127983390Y-117119047D01*
X127554819Y-116690476D02*
X128126247Y-117261904D01*
X101061905Y-110634819D02*
X101061905Y-109634819D01*
X101061905Y-109634819D02*
X101300000Y-109634819D01*
X101300000Y-109634819D02*
X101442857Y-109682438D01*
X101442857Y-109682438D02*
X101538095Y-109777676D01*
X101538095Y-109777676D02*
X101585714Y-109872914D01*
X101585714Y-109872914D02*
X101633333Y-110063390D01*
X101633333Y-110063390D02*
X101633333Y-110206247D01*
X101633333Y-110206247D02*
X101585714Y-110396723D01*
X101585714Y-110396723D02*
X101538095Y-110491961D01*
X101538095Y-110491961D02*
X101442857Y-110587200D01*
X101442857Y-110587200D02*
X101300000Y-110634819D01*
X101300000Y-110634819D02*
X101061905Y-110634819D01*
X102014286Y-109730057D02*
X102061905Y-109682438D01*
X102061905Y-109682438D02*
X102157143Y-109634819D01*
X102157143Y-109634819D02*
X102395238Y-109634819D01*
X102395238Y-109634819D02*
X102490476Y-109682438D01*
X102490476Y-109682438D02*
X102538095Y-109730057D01*
X102538095Y-109730057D02*
X102585714Y-109825295D01*
X102585714Y-109825295D02*
X102585714Y-109920533D01*
X102585714Y-109920533D02*
X102538095Y-110063390D01*
X102538095Y-110063390D02*
X101966667Y-110634819D01*
X101966667Y-110634819D02*
X102585714Y-110634819D01*
X97728095Y-110954819D02*
X97728095Y-109954819D01*
X98299523Y-110954819D02*
X97870952Y-110383390D01*
X98299523Y-109954819D02*
X97728095Y-110526247D01*
X165634761Y-114590057D02*
X165539523Y-114542438D01*
X165539523Y-114542438D02*
X165444285Y-114447200D01*
X165444285Y-114447200D02*
X165301428Y-114304342D01*
X165301428Y-114304342D02*
X165206190Y-114256723D01*
X165206190Y-114256723D02*
X165110952Y-114256723D01*
X165158571Y-114494819D02*
X165063333Y-114447200D01*
X165063333Y-114447200D02*
X164968095Y-114351961D01*
X164968095Y-114351961D02*
X164920476Y-114161485D01*
X164920476Y-114161485D02*
X164920476Y-113828152D01*
X164920476Y-113828152D02*
X164968095Y-113637676D01*
X164968095Y-113637676D02*
X165063333Y-113542438D01*
X165063333Y-113542438D02*
X165158571Y-113494819D01*
X165158571Y-113494819D02*
X165349047Y-113494819D01*
X165349047Y-113494819D02*
X165444285Y-113542438D01*
X165444285Y-113542438D02*
X165539523Y-113637676D01*
X165539523Y-113637676D02*
X165587142Y-113828152D01*
X165587142Y-113828152D02*
X165587142Y-114161485D01*
X165587142Y-114161485D02*
X165539523Y-114351961D01*
X165539523Y-114351961D02*
X165444285Y-114447200D01*
X165444285Y-114447200D02*
X165349047Y-114494819D01*
X165349047Y-114494819D02*
X165158571Y-114494819D01*
X166539523Y-114494819D02*
X165968095Y-114494819D01*
X166253809Y-114494819D02*
X166253809Y-113494819D01*
X166253809Y-113494819D02*
X166158571Y-113637676D01*
X166158571Y-113637676D02*
X166063333Y-113732914D01*
X166063333Y-113732914D02*
X165968095Y-113780533D01*
X161109580Y-100802857D02*
X161157200Y-100850476D01*
X161157200Y-100850476D02*
X161204819Y-100993333D01*
X161204819Y-100993333D02*
X161204819Y-101088571D01*
X161204819Y-101088571D02*
X161157200Y-101231428D01*
X161157200Y-101231428D02*
X161061961Y-101326666D01*
X161061961Y-101326666D02*
X160966723Y-101374285D01*
X160966723Y-101374285D02*
X160776247Y-101421904D01*
X160776247Y-101421904D02*
X160633390Y-101421904D01*
X160633390Y-101421904D02*
X160442914Y-101374285D01*
X160442914Y-101374285D02*
X160347676Y-101326666D01*
X160347676Y-101326666D02*
X160252438Y-101231428D01*
X160252438Y-101231428D02*
X160204819Y-101088571D01*
X160204819Y-101088571D02*
X160204819Y-100993333D01*
X160204819Y-100993333D02*
X160252438Y-100850476D01*
X160252438Y-100850476D02*
X160300057Y-100802857D01*
X161204819Y-99850476D02*
X161204819Y-100421904D01*
X161204819Y-100136190D02*
X160204819Y-100136190D01*
X160204819Y-100136190D02*
X160347676Y-100231428D01*
X160347676Y-100231428D02*
X160442914Y-100326666D01*
X160442914Y-100326666D02*
X160490533Y-100421904D01*
X161204819Y-98898095D02*
X161204819Y-99469523D01*
X161204819Y-99183809D02*
X160204819Y-99183809D01*
X160204819Y-99183809D02*
X160347676Y-99279047D01*
X160347676Y-99279047D02*
X160442914Y-99374285D01*
X160442914Y-99374285D02*
X160490533Y-99469523D01*
X161159580Y-98242857D02*
X161207200Y-98290476D01*
X161207200Y-98290476D02*
X161254819Y-98433333D01*
X161254819Y-98433333D02*
X161254819Y-98528571D01*
X161254819Y-98528571D02*
X161207200Y-98671428D01*
X161207200Y-98671428D02*
X161111961Y-98766666D01*
X161111961Y-98766666D02*
X161016723Y-98814285D01*
X161016723Y-98814285D02*
X160826247Y-98861904D01*
X160826247Y-98861904D02*
X160683390Y-98861904D01*
X160683390Y-98861904D02*
X160492914Y-98814285D01*
X160492914Y-98814285D02*
X160397676Y-98766666D01*
X160397676Y-98766666D02*
X160302438Y-98671428D01*
X160302438Y-98671428D02*
X160254819Y-98528571D01*
X160254819Y-98528571D02*
X160254819Y-98433333D01*
X160254819Y-98433333D02*
X160302438Y-98290476D01*
X160302438Y-98290476D02*
X160350057Y-98242857D01*
X161254819Y-97290476D02*
X161254819Y-97861904D01*
X161254819Y-97576190D02*
X160254819Y-97576190D01*
X160254819Y-97576190D02*
X160397676Y-97671428D01*
X160397676Y-97671428D02*
X160492914Y-97766666D01*
X160492914Y-97766666D02*
X160540533Y-97861904D01*
X160350057Y-96909523D02*
X160302438Y-96861904D01*
X160302438Y-96861904D02*
X160254819Y-96766666D01*
X160254819Y-96766666D02*
X160254819Y-96528571D01*
X160254819Y-96528571D02*
X160302438Y-96433333D01*
X160302438Y-96433333D02*
X160350057Y-96385714D01*
X160350057Y-96385714D02*
X160445295Y-96338095D01*
X160445295Y-96338095D02*
X160540533Y-96338095D01*
X160540533Y-96338095D02*
X160683390Y-96385714D01*
X160683390Y-96385714D02*
X161254819Y-96957142D01*
X161254819Y-96957142D02*
X161254819Y-96338095D01*
X109354819Y-114128094D02*
X108354819Y-114128094D01*
X108354819Y-114128094D02*
X108354819Y-113889999D01*
X108354819Y-113889999D02*
X108402438Y-113747142D01*
X108402438Y-113747142D02*
X108497676Y-113651904D01*
X108497676Y-113651904D02*
X108592914Y-113604285D01*
X108592914Y-113604285D02*
X108783390Y-113556666D01*
X108783390Y-113556666D02*
X108926247Y-113556666D01*
X108926247Y-113556666D02*
X109116723Y-113604285D01*
X109116723Y-113604285D02*
X109211961Y-113651904D01*
X109211961Y-113651904D02*
X109307200Y-113747142D01*
X109307200Y-113747142D02*
X109354819Y-113889999D01*
X109354819Y-113889999D02*
X109354819Y-114128094D01*
X108354819Y-112699523D02*
X108354819Y-112889999D01*
X108354819Y-112889999D02*
X108402438Y-112985237D01*
X108402438Y-112985237D02*
X108450057Y-113032856D01*
X108450057Y-113032856D02*
X108592914Y-113128094D01*
X108592914Y-113128094D02*
X108783390Y-113175713D01*
X108783390Y-113175713D02*
X109164342Y-113175713D01*
X109164342Y-113175713D02*
X109259580Y-113128094D01*
X109259580Y-113128094D02*
X109307200Y-113080475D01*
X109307200Y-113080475D02*
X109354819Y-112985237D01*
X109354819Y-112985237D02*
X109354819Y-112794761D01*
X109354819Y-112794761D02*
X109307200Y-112699523D01*
X109307200Y-112699523D02*
X109259580Y-112651904D01*
X109259580Y-112651904D02*
X109164342Y-112604285D01*
X109164342Y-112604285D02*
X108926247Y-112604285D01*
X108926247Y-112604285D02*
X108831009Y-112651904D01*
X108831009Y-112651904D02*
X108783390Y-112699523D01*
X108783390Y-112699523D02*
X108735771Y-112794761D01*
X108735771Y-112794761D02*
X108735771Y-112985237D01*
X108735771Y-112985237D02*
X108783390Y-113080475D01*
X108783390Y-113080475D02*
X108831009Y-113128094D01*
X108831009Y-113128094D02*
X108926247Y-113175713D01*
X109754819Y-117261904D02*
X108754819Y-117261904D01*
X109754819Y-116690476D02*
X109183390Y-117119047D01*
X108754819Y-116690476D02*
X109326247Y-117261904D01*
X126854819Y-85761904D02*
X127664342Y-85761904D01*
X127664342Y-85761904D02*
X127759580Y-85714285D01*
X127759580Y-85714285D02*
X127807200Y-85666666D01*
X127807200Y-85666666D02*
X127854819Y-85571428D01*
X127854819Y-85571428D02*
X127854819Y-85380952D01*
X127854819Y-85380952D02*
X127807200Y-85285714D01*
X127807200Y-85285714D02*
X127759580Y-85238095D01*
X127759580Y-85238095D02*
X127664342Y-85190476D01*
X127664342Y-85190476D02*
X126854819Y-85190476D01*
X127283390Y-84571428D02*
X127235771Y-84666666D01*
X127235771Y-84666666D02*
X127188152Y-84714285D01*
X127188152Y-84714285D02*
X127092914Y-84761904D01*
X127092914Y-84761904D02*
X127045295Y-84761904D01*
X127045295Y-84761904D02*
X126950057Y-84714285D01*
X126950057Y-84714285D02*
X126902438Y-84666666D01*
X126902438Y-84666666D02*
X126854819Y-84571428D01*
X126854819Y-84571428D02*
X126854819Y-84380952D01*
X126854819Y-84380952D02*
X126902438Y-84285714D01*
X126902438Y-84285714D02*
X126950057Y-84238095D01*
X126950057Y-84238095D02*
X127045295Y-84190476D01*
X127045295Y-84190476D02*
X127092914Y-84190476D01*
X127092914Y-84190476D02*
X127188152Y-84238095D01*
X127188152Y-84238095D02*
X127235771Y-84285714D01*
X127235771Y-84285714D02*
X127283390Y-84380952D01*
X127283390Y-84380952D02*
X127283390Y-84571428D01*
X127283390Y-84571428D02*
X127331009Y-84666666D01*
X127331009Y-84666666D02*
X127378628Y-84714285D01*
X127378628Y-84714285D02*
X127473866Y-84761904D01*
X127473866Y-84761904D02*
X127664342Y-84761904D01*
X127664342Y-84761904D02*
X127759580Y-84714285D01*
X127759580Y-84714285D02*
X127807200Y-84666666D01*
X127807200Y-84666666D02*
X127854819Y-84571428D01*
X127854819Y-84571428D02*
X127854819Y-84380952D01*
X127854819Y-84380952D02*
X127807200Y-84285714D01*
X127807200Y-84285714D02*
X127759580Y-84238095D01*
X127759580Y-84238095D02*
X127664342Y-84190476D01*
X127664342Y-84190476D02*
X127473866Y-84190476D01*
X127473866Y-84190476D02*
X127378628Y-84238095D01*
X127378628Y-84238095D02*
X127331009Y-84285714D01*
X127331009Y-84285714D02*
X127283390Y-84380952D01*
X124034819Y-113928094D02*
X123034819Y-113928094D01*
X123034819Y-113928094D02*
X123034819Y-113689999D01*
X123034819Y-113689999D02*
X123082438Y-113547142D01*
X123082438Y-113547142D02*
X123177676Y-113451904D01*
X123177676Y-113451904D02*
X123272914Y-113404285D01*
X123272914Y-113404285D02*
X123463390Y-113356666D01*
X123463390Y-113356666D02*
X123606247Y-113356666D01*
X123606247Y-113356666D02*
X123796723Y-113404285D01*
X123796723Y-113404285D02*
X123891961Y-113451904D01*
X123891961Y-113451904D02*
X123987200Y-113547142D01*
X123987200Y-113547142D02*
X124034819Y-113689999D01*
X124034819Y-113689999D02*
X124034819Y-113928094D01*
X124034819Y-112880475D02*
X124034819Y-112689999D01*
X124034819Y-112689999D02*
X123987200Y-112594761D01*
X123987200Y-112594761D02*
X123939580Y-112547142D01*
X123939580Y-112547142D02*
X123796723Y-112451904D01*
X123796723Y-112451904D02*
X123606247Y-112404285D01*
X123606247Y-112404285D02*
X123225295Y-112404285D01*
X123225295Y-112404285D02*
X123130057Y-112451904D01*
X123130057Y-112451904D02*
X123082438Y-112499523D01*
X123082438Y-112499523D02*
X123034819Y-112594761D01*
X123034819Y-112594761D02*
X123034819Y-112785237D01*
X123034819Y-112785237D02*
X123082438Y-112880475D01*
X123082438Y-112880475D02*
X123130057Y-112928094D01*
X123130057Y-112928094D02*
X123225295Y-112975713D01*
X123225295Y-112975713D02*
X123463390Y-112975713D01*
X123463390Y-112975713D02*
X123558628Y-112928094D01*
X123558628Y-112928094D02*
X123606247Y-112880475D01*
X123606247Y-112880475D02*
X123653866Y-112785237D01*
X123653866Y-112785237D02*
X123653866Y-112594761D01*
X123653866Y-112594761D02*
X123606247Y-112499523D01*
X123606247Y-112499523D02*
X123558628Y-112451904D01*
X123558628Y-112451904D02*
X123463390Y-112404285D01*
X124354819Y-117261904D02*
X123354819Y-117261904D01*
X124354819Y-116690476D02*
X123783390Y-117119047D01*
X123354819Y-116690476D02*
X123926247Y-117261904D01*
X161059580Y-104042857D02*
X161107200Y-104090476D01*
X161107200Y-104090476D02*
X161154819Y-104233333D01*
X161154819Y-104233333D02*
X161154819Y-104328571D01*
X161154819Y-104328571D02*
X161107200Y-104471428D01*
X161107200Y-104471428D02*
X161011961Y-104566666D01*
X161011961Y-104566666D02*
X160916723Y-104614285D01*
X160916723Y-104614285D02*
X160726247Y-104661904D01*
X160726247Y-104661904D02*
X160583390Y-104661904D01*
X160583390Y-104661904D02*
X160392914Y-104614285D01*
X160392914Y-104614285D02*
X160297676Y-104566666D01*
X160297676Y-104566666D02*
X160202438Y-104471428D01*
X160202438Y-104471428D02*
X160154819Y-104328571D01*
X160154819Y-104328571D02*
X160154819Y-104233333D01*
X160154819Y-104233333D02*
X160202438Y-104090476D01*
X160202438Y-104090476D02*
X160250057Y-104042857D01*
X161154819Y-103090476D02*
X161154819Y-103661904D01*
X161154819Y-103376190D02*
X160154819Y-103376190D01*
X160154819Y-103376190D02*
X160297676Y-103471428D01*
X160297676Y-103471428D02*
X160392914Y-103566666D01*
X160392914Y-103566666D02*
X160440533Y-103661904D01*
X160154819Y-102185714D02*
X160154819Y-102661904D01*
X160154819Y-102661904D02*
X160631009Y-102709523D01*
X160631009Y-102709523D02*
X160583390Y-102661904D01*
X160583390Y-102661904D02*
X160535771Y-102566666D01*
X160535771Y-102566666D02*
X160535771Y-102328571D01*
X160535771Y-102328571D02*
X160583390Y-102233333D01*
X160583390Y-102233333D02*
X160631009Y-102185714D01*
X160631009Y-102185714D02*
X160726247Y-102138095D01*
X160726247Y-102138095D02*
X160964342Y-102138095D01*
X160964342Y-102138095D02*
X161059580Y-102185714D01*
X161059580Y-102185714D02*
X161107200Y-102233333D01*
X161107200Y-102233333D02*
X161154819Y-102328571D01*
X161154819Y-102328571D02*
X161154819Y-102566666D01*
X161154819Y-102566666D02*
X161107200Y-102661904D01*
X161107200Y-102661904D02*
X161059580Y-102709523D01*
X125754819Y-135542857D02*
X125278628Y-135876190D01*
X125754819Y-136114285D02*
X124754819Y-136114285D01*
X124754819Y-136114285D02*
X124754819Y-135733333D01*
X124754819Y-135733333D02*
X124802438Y-135638095D01*
X124802438Y-135638095D02*
X124850057Y-135590476D01*
X124850057Y-135590476D02*
X124945295Y-135542857D01*
X124945295Y-135542857D02*
X125088152Y-135542857D01*
X125088152Y-135542857D02*
X125183390Y-135590476D01*
X125183390Y-135590476D02*
X125231009Y-135638095D01*
X125231009Y-135638095D02*
X125278628Y-135733333D01*
X125278628Y-135733333D02*
X125278628Y-136114285D01*
X125754819Y-134590476D02*
X125754819Y-135161904D01*
X125754819Y-134876190D02*
X124754819Y-134876190D01*
X124754819Y-134876190D02*
X124897676Y-134971428D01*
X124897676Y-134971428D02*
X124992914Y-135066666D01*
X124992914Y-135066666D02*
X125040533Y-135161904D01*
X125088152Y-133733333D02*
X125754819Y-133733333D01*
X124707200Y-133971428D02*
X125421485Y-134209523D01*
X125421485Y-134209523D02*
X125421485Y-133590476D01*
X117323095Y-93324819D02*
X117323095Y-94134342D01*
X117323095Y-94134342D02*
X117370714Y-94229580D01*
X117370714Y-94229580D02*
X117418333Y-94277200D01*
X117418333Y-94277200D02*
X117513571Y-94324819D01*
X117513571Y-94324819D02*
X117704047Y-94324819D01*
X117704047Y-94324819D02*
X117799285Y-94277200D01*
X117799285Y-94277200D02*
X117846904Y-94229580D01*
X117846904Y-94229580D02*
X117894523Y-94134342D01*
X117894523Y-94134342D02*
X117894523Y-93324819D01*
X118894523Y-94324819D02*
X118323095Y-94324819D01*
X118608809Y-94324819D02*
X118608809Y-93324819D01*
X118608809Y-93324819D02*
X118513571Y-93467676D01*
X118513571Y-93467676D02*
X118418333Y-93562914D01*
X118418333Y-93562914D02*
X118323095Y-93610533D01*
X154263095Y-83244819D02*
X154263095Y-84054342D01*
X154263095Y-84054342D02*
X154310714Y-84149580D01*
X154310714Y-84149580D02*
X154358333Y-84197200D01*
X154358333Y-84197200D02*
X154453571Y-84244819D01*
X154453571Y-84244819D02*
X154644047Y-84244819D01*
X154644047Y-84244819D02*
X154739285Y-84197200D01*
X154739285Y-84197200D02*
X154786904Y-84149580D01*
X154786904Y-84149580D02*
X154834523Y-84054342D01*
X154834523Y-84054342D02*
X154834523Y-83244819D01*
X155263095Y-83340057D02*
X155310714Y-83292438D01*
X155310714Y-83292438D02*
X155405952Y-83244819D01*
X155405952Y-83244819D02*
X155644047Y-83244819D01*
X155644047Y-83244819D02*
X155739285Y-83292438D01*
X155739285Y-83292438D02*
X155786904Y-83340057D01*
X155786904Y-83340057D02*
X155834523Y-83435295D01*
X155834523Y-83435295D02*
X155834523Y-83530533D01*
X155834523Y-83530533D02*
X155786904Y-83673390D01*
X155786904Y-83673390D02*
X155215476Y-84244819D01*
X155215476Y-84244819D02*
X155834523Y-84244819D01*
X118438095Y-79954819D02*
X118438095Y-80764342D01*
X118438095Y-80764342D02*
X118485714Y-80859580D01*
X118485714Y-80859580D02*
X118533333Y-80907200D01*
X118533333Y-80907200D02*
X118628571Y-80954819D01*
X118628571Y-80954819D02*
X118819047Y-80954819D01*
X118819047Y-80954819D02*
X118914285Y-80907200D01*
X118914285Y-80907200D02*
X118961904Y-80859580D01*
X118961904Y-80859580D02*
X119009523Y-80764342D01*
X119009523Y-80764342D02*
X119009523Y-79954819D01*
X119390476Y-79954819D02*
X120009523Y-79954819D01*
X120009523Y-79954819D02*
X119676190Y-80335771D01*
X119676190Y-80335771D02*
X119819047Y-80335771D01*
X119819047Y-80335771D02*
X119914285Y-80383390D01*
X119914285Y-80383390D02*
X119961904Y-80431009D01*
X119961904Y-80431009D02*
X120009523Y-80526247D01*
X120009523Y-80526247D02*
X120009523Y-80764342D01*
X120009523Y-80764342D02*
X119961904Y-80859580D01*
X119961904Y-80859580D02*
X119914285Y-80907200D01*
X119914285Y-80907200D02*
X119819047Y-80954819D01*
X119819047Y-80954819D02*
X119533333Y-80954819D01*
X119533333Y-80954819D02*
X119438095Y-80907200D01*
X119438095Y-80907200D02*
X119390476Y-80859580D01*
X125654819Y-132442857D02*
X125178628Y-132776190D01*
X125654819Y-133014285D02*
X124654819Y-133014285D01*
X124654819Y-133014285D02*
X124654819Y-132633333D01*
X124654819Y-132633333D02*
X124702438Y-132538095D01*
X124702438Y-132538095D02*
X124750057Y-132490476D01*
X124750057Y-132490476D02*
X124845295Y-132442857D01*
X124845295Y-132442857D02*
X124988152Y-132442857D01*
X124988152Y-132442857D02*
X125083390Y-132490476D01*
X125083390Y-132490476D02*
X125131009Y-132538095D01*
X125131009Y-132538095D02*
X125178628Y-132633333D01*
X125178628Y-132633333D02*
X125178628Y-133014285D01*
X125654819Y-131490476D02*
X125654819Y-132061904D01*
X125654819Y-131776190D02*
X124654819Y-131776190D01*
X124654819Y-131776190D02*
X124797676Y-131871428D01*
X124797676Y-131871428D02*
X124892914Y-131966666D01*
X124892914Y-131966666D02*
X124940533Y-132061904D01*
X124654819Y-130585714D02*
X124654819Y-131061904D01*
X124654819Y-131061904D02*
X125131009Y-131109523D01*
X125131009Y-131109523D02*
X125083390Y-131061904D01*
X125083390Y-131061904D02*
X125035771Y-130966666D01*
X125035771Y-130966666D02*
X125035771Y-130728571D01*
X125035771Y-130728571D02*
X125083390Y-130633333D01*
X125083390Y-130633333D02*
X125131009Y-130585714D01*
X125131009Y-130585714D02*
X125226247Y-130538095D01*
X125226247Y-130538095D02*
X125464342Y-130538095D01*
X125464342Y-130538095D02*
X125559580Y-130585714D01*
X125559580Y-130585714D02*
X125607200Y-130633333D01*
X125607200Y-130633333D02*
X125654819Y-130728571D01*
X125654819Y-130728571D02*
X125654819Y-130966666D01*
X125654819Y-130966666D02*
X125607200Y-131061904D01*
X125607200Y-131061904D02*
X125559580Y-131109523D01*
X95814819Y-107292857D02*
X95338628Y-107626190D01*
X95814819Y-107864285D02*
X94814819Y-107864285D01*
X94814819Y-107864285D02*
X94814819Y-107483333D01*
X94814819Y-107483333D02*
X94862438Y-107388095D01*
X94862438Y-107388095D02*
X94910057Y-107340476D01*
X94910057Y-107340476D02*
X95005295Y-107292857D01*
X95005295Y-107292857D02*
X95148152Y-107292857D01*
X95148152Y-107292857D02*
X95243390Y-107340476D01*
X95243390Y-107340476D02*
X95291009Y-107388095D01*
X95291009Y-107388095D02*
X95338628Y-107483333D01*
X95338628Y-107483333D02*
X95338628Y-107864285D01*
X95814819Y-106340476D02*
X95814819Y-106911904D01*
X95814819Y-106626190D02*
X94814819Y-106626190D01*
X94814819Y-106626190D02*
X94957676Y-106721428D01*
X94957676Y-106721428D02*
X95052914Y-106816666D01*
X95052914Y-106816666D02*
X95100533Y-106911904D01*
X94814819Y-105483333D02*
X94814819Y-105673809D01*
X94814819Y-105673809D02*
X94862438Y-105769047D01*
X94862438Y-105769047D02*
X94910057Y-105816666D01*
X94910057Y-105816666D02*
X95052914Y-105911904D01*
X95052914Y-105911904D02*
X95243390Y-105959523D01*
X95243390Y-105959523D02*
X95624342Y-105959523D01*
X95624342Y-105959523D02*
X95719580Y-105911904D01*
X95719580Y-105911904D02*
X95767200Y-105864285D01*
X95767200Y-105864285D02*
X95814819Y-105769047D01*
X95814819Y-105769047D02*
X95814819Y-105578571D01*
X95814819Y-105578571D02*
X95767200Y-105483333D01*
X95767200Y-105483333D02*
X95719580Y-105435714D01*
X95719580Y-105435714D02*
X95624342Y-105388095D01*
X95624342Y-105388095D02*
X95386247Y-105388095D01*
X95386247Y-105388095D02*
X95291009Y-105435714D01*
X95291009Y-105435714D02*
X95243390Y-105483333D01*
X95243390Y-105483333D02*
X95195771Y-105578571D01*
X95195771Y-105578571D02*
X95195771Y-105769047D01*
X95195771Y-105769047D02*
X95243390Y-105864285D01*
X95243390Y-105864285D02*
X95291009Y-105911904D01*
X95291009Y-105911904D02*
X95386247Y-105959523D01*
X124354819Y-86566666D02*
X123878628Y-86899999D01*
X124354819Y-87138094D02*
X123354819Y-87138094D01*
X123354819Y-87138094D02*
X123354819Y-86757142D01*
X123354819Y-86757142D02*
X123402438Y-86661904D01*
X123402438Y-86661904D02*
X123450057Y-86614285D01*
X123450057Y-86614285D02*
X123545295Y-86566666D01*
X123545295Y-86566666D02*
X123688152Y-86566666D01*
X123688152Y-86566666D02*
X123783390Y-86614285D01*
X123783390Y-86614285D02*
X123831009Y-86661904D01*
X123831009Y-86661904D02*
X123878628Y-86757142D01*
X123878628Y-86757142D02*
X123878628Y-87138094D01*
X123688152Y-85709523D02*
X124354819Y-85709523D01*
X123307200Y-85947618D02*
X124021485Y-86185713D01*
X124021485Y-86185713D02*
X124021485Y-85566666D01*
X95076666Y-46484819D02*
X95076666Y-47199104D01*
X95076666Y-47199104D02*
X95029047Y-47341961D01*
X95029047Y-47341961D02*
X94933809Y-47437200D01*
X94933809Y-47437200D02*
X94790952Y-47484819D01*
X94790952Y-47484819D02*
X94695714Y-47484819D01*
X96076666Y-47484819D02*
X95505238Y-47484819D01*
X95790952Y-47484819D02*
X95790952Y-46484819D01*
X95790952Y-46484819D02*
X95695714Y-46627676D01*
X95695714Y-46627676D02*
X95600476Y-46722914D01*
X95600476Y-46722914D02*
X95505238Y-46770533D01*
X131696667Y-139407200D02*
X131839524Y-139454819D01*
X131839524Y-139454819D02*
X132077619Y-139454819D01*
X132077619Y-139454819D02*
X132172857Y-139407200D01*
X132172857Y-139407200D02*
X132220476Y-139359580D01*
X132220476Y-139359580D02*
X132268095Y-139264342D01*
X132268095Y-139264342D02*
X132268095Y-139169104D01*
X132268095Y-139169104D02*
X132220476Y-139073866D01*
X132220476Y-139073866D02*
X132172857Y-139026247D01*
X132172857Y-139026247D02*
X132077619Y-138978628D01*
X132077619Y-138978628D02*
X131887143Y-138931009D01*
X131887143Y-138931009D02*
X131791905Y-138883390D01*
X131791905Y-138883390D02*
X131744286Y-138835771D01*
X131744286Y-138835771D02*
X131696667Y-138740533D01*
X131696667Y-138740533D02*
X131696667Y-138645295D01*
X131696667Y-138645295D02*
X131744286Y-138550057D01*
X131744286Y-138550057D02*
X131791905Y-138502438D01*
X131791905Y-138502438D02*
X131887143Y-138454819D01*
X131887143Y-138454819D02*
X132125238Y-138454819D01*
X132125238Y-138454819D02*
X132268095Y-138502438D01*
X132601429Y-138454819D02*
X132839524Y-139454819D01*
X132839524Y-139454819D02*
X133030000Y-138740533D01*
X133030000Y-138740533D02*
X133220476Y-139454819D01*
X133220476Y-139454819D02*
X133458572Y-138454819D01*
X134363333Y-139454819D02*
X133791905Y-139454819D01*
X134077619Y-139454819D02*
X134077619Y-138454819D01*
X134077619Y-138454819D02*
X133982381Y-138597676D01*
X133982381Y-138597676D02*
X133887143Y-138692914D01*
X133887143Y-138692914D02*
X133791905Y-138740533D01*
X96054819Y-100366666D02*
X95578628Y-100699999D01*
X96054819Y-100938094D02*
X95054819Y-100938094D01*
X95054819Y-100938094D02*
X95054819Y-100557142D01*
X95054819Y-100557142D02*
X95102438Y-100461904D01*
X95102438Y-100461904D02*
X95150057Y-100414285D01*
X95150057Y-100414285D02*
X95245295Y-100366666D01*
X95245295Y-100366666D02*
X95388152Y-100366666D01*
X95388152Y-100366666D02*
X95483390Y-100414285D01*
X95483390Y-100414285D02*
X95531009Y-100461904D01*
X95531009Y-100461904D02*
X95578628Y-100557142D01*
X95578628Y-100557142D02*
X95578628Y-100938094D01*
X95054819Y-99509523D02*
X95054819Y-99699999D01*
X95054819Y-99699999D02*
X95102438Y-99795237D01*
X95102438Y-99795237D02*
X95150057Y-99842856D01*
X95150057Y-99842856D02*
X95292914Y-99938094D01*
X95292914Y-99938094D02*
X95483390Y-99985713D01*
X95483390Y-99985713D02*
X95864342Y-99985713D01*
X95864342Y-99985713D02*
X95959580Y-99938094D01*
X95959580Y-99938094D02*
X96007200Y-99890475D01*
X96007200Y-99890475D02*
X96054819Y-99795237D01*
X96054819Y-99795237D02*
X96054819Y-99604761D01*
X96054819Y-99604761D02*
X96007200Y-99509523D01*
X96007200Y-99509523D02*
X95959580Y-99461904D01*
X95959580Y-99461904D02*
X95864342Y-99414285D01*
X95864342Y-99414285D02*
X95626247Y-99414285D01*
X95626247Y-99414285D02*
X95531009Y-99461904D01*
X95531009Y-99461904D02*
X95483390Y-99509523D01*
X95483390Y-99509523D02*
X95435771Y-99604761D01*
X95435771Y-99604761D02*
X95435771Y-99795237D01*
X95435771Y-99795237D02*
X95483390Y-99890475D01*
X95483390Y-99890475D02*
X95531009Y-99938094D01*
X95531009Y-99938094D02*
X95626247Y-99985713D01*
X105333333Y-85759580D02*
X105285714Y-85807200D01*
X105285714Y-85807200D02*
X105142857Y-85854819D01*
X105142857Y-85854819D02*
X105047619Y-85854819D01*
X105047619Y-85854819D02*
X104904762Y-85807200D01*
X104904762Y-85807200D02*
X104809524Y-85711961D01*
X104809524Y-85711961D02*
X104761905Y-85616723D01*
X104761905Y-85616723D02*
X104714286Y-85426247D01*
X104714286Y-85426247D02*
X104714286Y-85283390D01*
X104714286Y-85283390D02*
X104761905Y-85092914D01*
X104761905Y-85092914D02*
X104809524Y-84997676D01*
X104809524Y-84997676D02*
X104904762Y-84902438D01*
X104904762Y-84902438D02*
X105047619Y-84854819D01*
X105047619Y-84854819D02*
X105142857Y-84854819D01*
X105142857Y-84854819D02*
X105285714Y-84902438D01*
X105285714Y-84902438D02*
X105333333Y-84950057D01*
X105666667Y-84854819D02*
X106333333Y-84854819D01*
X106333333Y-84854819D02*
X105904762Y-85854819D01*
X164866666Y-94244819D02*
X164866666Y-94959104D01*
X164866666Y-94959104D02*
X164819047Y-95101961D01*
X164819047Y-95101961D02*
X164723809Y-95197200D01*
X164723809Y-95197200D02*
X164580952Y-95244819D01*
X164580952Y-95244819D02*
X164485714Y-95244819D01*
X165771428Y-94244819D02*
X165580952Y-94244819D01*
X165580952Y-94244819D02*
X165485714Y-94292438D01*
X165485714Y-94292438D02*
X165438095Y-94340057D01*
X165438095Y-94340057D02*
X165342857Y-94482914D01*
X165342857Y-94482914D02*
X165295238Y-94673390D01*
X165295238Y-94673390D02*
X165295238Y-95054342D01*
X165295238Y-95054342D02*
X165342857Y-95149580D01*
X165342857Y-95149580D02*
X165390476Y-95197200D01*
X165390476Y-95197200D02*
X165485714Y-95244819D01*
X165485714Y-95244819D02*
X165676190Y-95244819D01*
X165676190Y-95244819D02*
X165771428Y-95197200D01*
X165771428Y-95197200D02*
X165819047Y-95149580D01*
X165819047Y-95149580D02*
X165866666Y-95054342D01*
X165866666Y-95054342D02*
X165866666Y-94816247D01*
X165866666Y-94816247D02*
X165819047Y-94721009D01*
X165819047Y-94721009D02*
X165771428Y-94673390D01*
X165771428Y-94673390D02*
X165676190Y-94625771D01*
X165676190Y-94625771D02*
X165485714Y-94625771D01*
X165485714Y-94625771D02*
X165390476Y-94673390D01*
X165390476Y-94673390D02*
X165342857Y-94721009D01*
X165342857Y-94721009D02*
X165295238Y-94816247D01*
X132633333Y-79584819D02*
X132300000Y-79108628D01*
X132061905Y-79584819D02*
X132061905Y-78584819D01*
X132061905Y-78584819D02*
X132442857Y-78584819D01*
X132442857Y-78584819D02*
X132538095Y-78632438D01*
X132538095Y-78632438D02*
X132585714Y-78680057D01*
X132585714Y-78680057D02*
X132633333Y-78775295D01*
X132633333Y-78775295D02*
X132633333Y-78918152D01*
X132633333Y-78918152D02*
X132585714Y-79013390D01*
X132585714Y-79013390D02*
X132538095Y-79061009D01*
X132538095Y-79061009D02*
X132442857Y-79108628D01*
X132442857Y-79108628D02*
X132061905Y-79108628D01*
X132966667Y-78584819D02*
X133585714Y-78584819D01*
X133585714Y-78584819D02*
X133252381Y-78965771D01*
X133252381Y-78965771D02*
X133395238Y-78965771D01*
X133395238Y-78965771D02*
X133490476Y-79013390D01*
X133490476Y-79013390D02*
X133538095Y-79061009D01*
X133538095Y-79061009D02*
X133585714Y-79156247D01*
X133585714Y-79156247D02*
X133585714Y-79394342D01*
X133585714Y-79394342D02*
X133538095Y-79489580D01*
X133538095Y-79489580D02*
X133490476Y-79537200D01*
X133490476Y-79537200D02*
X133395238Y-79584819D01*
X133395238Y-79584819D02*
X133109524Y-79584819D01*
X133109524Y-79584819D02*
X133014286Y-79537200D01*
X133014286Y-79537200D02*
X132966667Y-79489580D01*
X118234819Y-113928094D02*
X117234819Y-113928094D01*
X117234819Y-113928094D02*
X117234819Y-113689999D01*
X117234819Y-113689999D02*
X117282438Y-113547142D01*
X117282438Y-113547142D02*
X117377676Y-113451904D01*
X117377676Y-113451904D02*
X117472914Y-113404285D01*
X117472914Y-113404285D02*
X117663390Y-113356666D01*
X117663390Y-113356666D02*
X117806247Y-113356666D01*
X117806247Y-113356666D02*
X117996723Y-113404285D01*
X117996723Y-113404285D02*
X118091961Y-113451904D01*
X118091961Y-113451904D02*
X118187200Y-113547142D01*
X118187200Y-113547142D02*
X118234819Y-113689999D01*
X118234819Y-113689999D02*
X118234819Y-113928094D01*
X117663390Y-112785237D02*
X117615771Y-112880475D01*
X117615771Y-112880475D02*
X117568152Y-112928094D01*
X117568152Y-112928094D02*
X117472914Y-112975713D01*
X117472914Y-112975713D02*
X117425295Y-112975713D01*
X117425295Y-112975713D02*
X117330057Y-112928094D01*
X117330057Y-112928094D02*
X117282438Y-112880475D01*
X117282438Y-112880475D02*
X117234819Y-112785237D01*
X117234819Y-112785237D02*
X117234819Y-112594761D01*
X117234819Y-112594761D02*
X117282438Y-112499523D01*
X117282438Y-112499523D02*
X117330057Y-112451904D01*
X117330057Y-112451904D02*
X117425295Y-112404285D01*
X117425295Y-112404285D02*
X117472914Y-112404285D01*
X117472914Y-112404285D02*
X117568152Y-112451904D01*
X117568152Y-112451904D02*
X117615771Y-112499523D01*
X117615771Y-112499523D02*
X117663390Y-112594761D01*
X117663390Y-112594761D02*
X117663390Y-112785237D01*
X117663390Y-112785237D02*
X117711009Y-112880475D01*
X117711009Y-112880475D02*
X117758628Y-112928094D01*
X117758628Y-112928094D02*
X117853866Y-112975713D01*
X117853866Y-112975713D02*
X118044342Y-112975713D01*
X118044342Y-112975713D02*
X118139580Y-112928094D01*
X118139580Y-112928094D02*
X118187200Y-112880475D01*
X118187200Y-112880475D02*
X118234819Y-112785237D01*
X118234819Y-112785237D02*
X118234819Y-112594761D01*
X118234819Y-112594761D02*
X118187200Y-112499523D01*
X118187200Y-112499523D02*
X118139580Y-112451904D01*
X118139580Y-112451904D02*
X118044342Y-112404285D01*
X118044342Y-112404285D02*
X117853866Y-112404285D01*
X117853866Y-112404285D02*
X117758628Y-112451904D01*
X117758628Y-112451904D02*
X117711009Y-112499523D01*
X117711009Y-112499523D02*
X117663390Y-112594761D01*
X118554819Y-117261904D02*
X117554819Y-117261904D01*
X118554819Y-116690476D02*
X117983390Y-117119047D01*
X117554819Y-116690476D02*
X118126247Y-117261904D01*
X119769580Y-122211554D02*
X119817200Y-122259173D01*
X119817200Y-122259173D02*
X119864819Y-122402030D01*
X119864819Y-122402030D02*
X119864819Y-122497268D01*
X119864819Y-122497268D02*
X119817200Y-122640125D01*
X119817200Y-122640125D02*
X119721961Y-122735363D01*
X119721961Y-122735363D02*
X119626723Y-122782982D01*
X119626723Y-122782982D02*
X119436247Y-122830601D01*
X119436247Y-122830601D02*
X119293390Y-122830601D01*
X119293390Y-122830601D02*
X119102914Y-122782982D01*
X119102914Y-122782982D02*
X119007676Y-122735363D01*
X119007676Y-122735363D02*
X118912438Y-122640125D01*
X118912438Y-122640125D02*
X118864819Y-122497268D01*
X118864819Y-122497268D02*
X118864819Y-122402030D01*
X118864819Y-122402030D02*
X118912438Y-122259173D01*
X118912438Y-122259173D02*
X118960057Y-122211554D01*
X119293390Y-121640125D02*
X119245771Y-121735363D01*
X119245771Y-121735363D02*
X119198152Y-121782982D01*
X119198152Y-121782982D02*
X119102914Y-121830601D01*
X119102914Y-121830601D02*
X119055295Y-121830601D01*
X119055295Y-121830601D02*
X118960057Y-121782982D01*
X118960057Y-121782982D02*
X118912438Y-121735363D01*
X118912438Y-121735363D02*
X118864819Y-121640125D01*
X118864819Y-121640125D02*
X118864819Y-121449649D01*
X118864819Y-121449649D02*
X118912438Y-121354411D01*
X118912438Y-121354411D02*
X118960057Y-121306792D01*
X118960057Y-121306792D02*
X119055295Y-121259173D01*
X119055295Y-121259173D02*
X119102914Y-121259173D01*
X119102914Y-121259173D02*
X119198152Y-121306792D01*
X119198152Y-121306792D02*
X119245771Y-121354411D01*
X119245771Y-121354411D02*
X119293390Y-121449649D01*
X119293390Y-121449649D02*
X119293390Y-121640125D01*
X119293390Y-121640125D02*
X119341009Y-121735363D01*
X119341009Y-121735363D02*
X119388628Y-121782982D01*
X119388628Y-121782982D02*
X119483866Y-121830601D01*
X119483866Y-121830601D02*
X119674342Y-121830601D01*
X119674342Y-121830601D02*
X119769580Y-121782982D01*
X119769580Y-121782982D02*
X119817200Y-121735363D01*
X119817200Y-121735363D02*
X119864819Y-121640125D01*
X119864819Y-121640125D02*
X119864819Y-121449649D01*
X119864819Y-121449649D02*
X119817200Y-121354411D01*
X119817200Y-121354411D02*
X119769580Y-121306792D01*
X119769580Y-121306792D02*
X119674342Y-121259173D01*
X119674342Y-121259173D02*
X119483866Y-121259173D01*
X119483866Y-121259173D02*
X119388628Y-121306792D01*
X119388628Y-121306792D02*
X119341009Y-121354411D01*
X119341009Y-121354411D02*
X119293390Y-121449649D01*
X125554819Y-129142857D02*
X125078628Y-129476190D01*
X125554819Y-129714285D02*
X124554819Y-129714285D01*
X124554819Y-129714285D02*
X124554819Y-129333333D01*
X124554819Y-129333333D02*
X124602438Y-129238095D01*
X124602438Y-129238095D02*
X124650057Y-129190476D01*
X124650057Y-129190476D02*
X124745295Y-129142857D01*
X124745295Y-129142857D02*
X124888152Y-129142857D01*
X124888152Y-129142857D02*
X124983390Y-129190476D01*
X124983390Y-129190476D02*
X125031009Y-129238095D01*
X125031009Y-129238095D02*
X125078628Y-129333333D01*
X125078628Y-129333333D02*
X125078628Y-129714285D01*
X125554819Y-128190476D02*
X125554819Y-128761904D01*
X125554819Y-128476190D02*
X124554819Y-128476190D01*
X124554819Y-128476190D02*
X124697676Y-128571428D01*
X124697676Y-128571428D02*
X124792914Y-128666666D01*
X124792914Y-128666666D02*
X124840533Y-128761904D01*
X124650057Y-127809523D02*
X124602438Y-127761904D01*
X124602438Y-127761904D02*
X124554819Y-127666666D01*
X124554819Y-127666666D02*
X124554819Y-127428571D01*
X124554819Y-127428571D02*
X124602438Y-127333333D01*
X124602438Y-127333333D02*
X124650057Y-127285714D01*
X124650057Y-127285714D02*
X124745295Y-127238095D01*
X124745295Y-127238095D02*
X124840533Y-127238095D01*
X124840533Y-127238095D02*
X124983390Y-127285714D01*
X124983390Y-127285714D02*
X125554819Y-127857142D01*
X125554819Y-127857142D02*
X125554819Y-127238095D01*
X146174819Y-101342857D02*
X145698628Y-101676190D01*
X146174819Y-101914285D02*
X145174819Y-101914285D01*
X145174819Y-101914285D02*
X145174819Y-101533333D01*
X145174819Y-101533333D02*
X145222438Y-101438095D01*
X145222438Y-101438095D02*
X145270057Y-101390476D01*
X145270057Y-101390476D02*
X145365295Y-101342857D01*
X145365295Y-101342857D02*
X145508152Y-101342857D01*
X145508152Y-101342857D02*
X145603390Y-101390476D01*
X145603390Y-101390476D02*
X145651009Y-101438095D01*
X145651009Y-101438095D02*
X145698628Y-101533333D01*
X145698628Y-101533333D02*
X145698628Y-101914285D01*
X146174819Y-100390476D02*
X146174819Y-100961904D01*
X146174819Y-100676190D02*
X145174819Y-100676190D01*
X145174819Y-100676190D02*
X145317676Y-100771428D01*
X145317676Y-100771428D02*
X145412914Y-100866666D01*
X145412914Y-100866666D02*
X145460533Y-100961904D01*
X145174819Y-99771428D02*
X145174819Y-99676190D01*
X145174819Y-99676190D02*
X145222438Y-99580952D01*
X145222438Y-99580952D02*
X145270057Y-99533333D01*
X145270057Y-99533333D02*
X145365295Y-99485714D01*
X145365295Y-99485714D02*
X145555771Y-99438095D01*
X145555771Y-99438095D02*
X145793866Y-99438095D01*
X145793866Y-99438095D02*
X145984342Y-99485714D01*
X145984342Y-99485714D02*
X146079580Y-99533333D01*
X146079580Y-99533333D02*
X146127200Y-99580952D01*
X146127200Y-99580952D02*
X146174819Y-99676190D01*
X146174819Y-99676190D02*
X146174819Y-99771428D01*
X146174819Y-99771428D02*
X146127200Y-99866666D01*
X146127200Y-99866666D02*
X146079580Y-99914285D01*
X146079580Y-99914285D02*
X145984342Y-99961904D01*
X145984342Y-99961904D02*
X145793866Y-100009523D01*
X145793866Y-100009523D02*
X145555771Y-100009523D01*
X145555771Y-100009523D02*
X145365295Y-99961904D01*
X145365295Y-99961904D02*
X145270057Y-99914285D01*
X145270057Y-99914285D02*
X145222438Y-99866666D01*
X145222438Y-99866666D02*
X145174819Y-99771428D01*
X143933333Y-79659580D02*
X143885714Y-79707200D01*
X143885714Y-79707200D02*
X143742857Y-79754819D01*
X143742857Y-79754819D02*
X143647619Y-79754819D01*
X143647619Y-79754819D02*
X143504762Y-79707200D01*
X143504762Y-79707200D02*
X143409524Y-79611961D01*
X143409524Y-79611961D02*
X143361905Y-79516723D01*
X143361905Y-79516723D02*
X143314286Y-79326247D01*
X143314286Y-79326247D02*
X143314286Y-79183390D01*
X143314286Y-79183390D02*
X143361905Y-78992914D01*
X143361905Y-78992914D02*
X143409524Y-78897676D01*
X143409524Y-78897676D02*
X143504762Y-78802438D01*
X143504762Y-78802438D02*
X143647619Y-78754819D01*
X143647619Y-78754819D02*
X143742857Y-78754819D01*
X143742857Y-78754819D02*
X143885714Y-78802438D01*
X143885714Y-78802438D02*
X143933333Y-78850057D01*
X144885714Y-79754819D02*
X144314286Y-79754819D01*
X144600000Y-79754819D02*
X144600000Y-78754819D01*
X144600000Y-78754819D02*
X144504762Y-78897676D01*
X144504762Y-78897676D02*
X144409524Y-78992914D01*
X144409524Y-78992914D02*
X144314286Y-79040533D01*
X146354819Y-108242857D02*
X145878628Y-108576190D01*
X146354819Y-108814285D02*
X145354819Y-108814285D01*
X145354819Y-108814285D02*
X145354819Y-108433333D01*
X145354819Y-108433333D02*
X145402438Y-108338095D01*
X145402438Y-108338095D02*
X145450057Y-108290476D01*
X145450057Y-108290476D02*
X145545295Y-108242857D01*
X145545295Y-108242857D02*
X145688152Y-108242857D01*
X145688152Y-108242857D02*
X145783390Y-108290476D01*
X145783390Y-108290476D02*
X145831009Y-108338095D01*
X145831009Y-108338095D02*
X145878628Y-108433333D01*
X145878628Y-108433333D02*
X145878628Y-108814285D01*
X146354819Y-107290476D02*
X146354819Y-107861904D01*
X146354819Y-107576190D02*
X145354819Y-107576190D01*
X145354819Y-107576190D02*
X145497676Y-107671428D01*
X145497676Y-107671428D02*
X145592914Y-107766666D01*
X145592914Y-107766666D02*
X145640533Y-107861904D01*
X146354819Y-106814285D02*
X146354819Y-106623809D01*
X146354819Y-106623809D02*
X146307200Y-106528571D01*
X146307200Y-106528571D02*
X146259580Y-106480952D01*
X146259580Y-106480952D02*
X146116723Y-106385714D01*
X146116723Y-106385714D02*
X145926247Y-106338095D01*
X145926247Y-106338095D02*
X145545295Y-106338095D01*
X145545295Y-106338095D02*
X145450057Y-106385714D01*
X145450057Y-106385714D02*
X145402438Y-106433333D01*
X145402438Y-106433333D02*
X145354819Y-106528571D01*
X145354819Y-106528571D02*
X145354819Y-106719047D01*
X145354819Y-106719047D02*
X145402438Y-106814285D01*
X145402438Y-106814285D02*
X145450057Y-106861904D01*
X145450057Y-106861904D02*
X145545295Y-106909523D01*
X145545295Y-106909523D02*
X145783390Y-106909523D01*
X145783390Y-106909523D02*
X145878628Y-106861904D01*
X145878628Y-106861904D02*
X145926247Y-106814285D01*
X145926247Y-106814285D02*
X145973866Y-106719047D01*
X145973866Y-106719047D02*
X145973866Y-106528571D01*
X145973866Y-106528571D02*
X145926247Y-106433333D01*
X145926247Y-106433333D02*
X145878628Y-106385714D01*
X145878628Y-106385714D02*
X145783390Y-106338095D01*
X146374819Y-105142857D02*
X145898628Y-105476190D01*
X146374819Y-105714285D02*
X145374819Y-105714285D01*
X145374819Y-105714285D02*
X145374819Y-105333333D01*
X145374819Y-105333333D02*
X145422438Y-105238095D01*
X145422438Y-105238095D02*
X145470057Y-105190476D01*
X145470057Y-105190476D02*
X145565295Y-105142857D01*
X145565295Y-105142857D02*
X145708152Y-105142857D01*
X145708152Y-105142857D02*
X145803390Y-105190476D01*
X145803390Y-105190476D02*
X145851009Y-105238095D01*
X145851009Y-105238095D02*
X145898628Y-105333333D01*
X145898628Y-105333333D02*
X145898628Y-105714285D01*
X146374819Y-104190476D02*
X146374819Y-104761904D01*
X146374819Y-104476190D02*
X145374819Y-104476190D01*
X145374819Y-104476190D02*
X145517676Y-104571428D01*
X145517676Y-104571428D02*
X145612914Y-104666666D01*
X145612914Y-104666666D02*
X145660533Y-104761904D01*
X145803390Y-103619047D02*
X145755771Y-103714285D01*
X145755771Y-103714285D02*
X145708152Y-103761904D01*
X145708152Y-103761904D02*
X145612914Y-103809523D01*
X145612914Y-103809523D02*
X145565295Y-103809523D01*
X145565295Y-103809523D02*
X145470057Y-103761904D01*
X145470057Y-103761904D02*
X145422438Y-103714285D01*
X145422438Y-103714285D02*
X145374819Y-103619047D01*
X145374819Y-103619047D02*
X145374819Y-103428571D01*
X145374819Y-103428571D02*
X145422438Y-103333333D01*
X145422438Y-103333333D02*
X145470057Y-103285714D01*
X145470057Y-103285714D02*
X145565295Y-103238095D01*
X145565295Y-103238095D02*
X145612914Y-103238095D01*
X145612914Y-103238095D02*
X145708152Y-103285714D01*
X145708152Y-103285714D02*
X145755771Y-103333333D01*
X145755771Y-103333333D02*
X145803390Y-103428571D01*
X145803390Y-103428571D02*
X145803390Y-103619047D01*
X145803390Y-103619047D02*
X145851009Y-103714285D01*
X145851009Y-103714285D02*
X145898628Y-103761904D01*
X145898628Y-103761904D02*
X145993866Y-103809523D01*
X145993866Y-103809523D02*
X146184342Y-103809523D01*
X146184342Y-103809523D02*
X146279580Y-103761904D01*
X146279580Y-103761904D02*
X146327200Y-103714285D01*
X146327200Y-103714285D02*
X146374819Y-103619047D01*
X146374819Y-103619047D02*
X146374819Y-103428571D01*
X146374819Y-103428571D02*
X146327200Y-103333333D01*
X146327200Y-103333333D02*
X146279580Y-103285714D01*
X146279580Y-103285714D02*
X146184342Y-103238095D01*
X146184342Y-103238095D02*
X145993866Y-103238095D01*
X145993866Y-103238095D02*
X145898628Y-103285714D01*
X145898628Y-103285714D02*
X145851009Y-103333333D01*
X145851009Y-103333333D02*
X145803390Y-103428571D01*
X140473809Y-101378628D02*
X140473809Y-101854819D01*
X140140476Y-100854819D02*
X140473809Y-101378628D01*
X140473809Y-101378628D02*
X140807142Y-100854819D01*
X141664285Y-101854819D02*
X141092857Y-101854819D01*
X141378571Y-101854819D02*
X141378571Y-100854819D01*
X141378571Y-100854819D02*
X141283333Y-100997676D01*
X141283333Y-100997676D02*
X141188095Y-101092914D01*
X141188095Y-101092914D02*
X141092857Y-101140533D01*
X95854819Y-97016666D02*
X95378628Y-97349999D01*
X95854819Y-97588094D02*
X94854819Y-97588094D01*
X94854819Y-97588094D02*
X94854819Y-97207142D01*
X94854819Y-97207142D02*
X94902438Y-97111904D01*
X94902438Y-97111904D02*
X94950057Y-97064285D01*
X94950057Y-97064285D02*
X95045295Y-97016666D01*
X95045295Y-97016666D02*
X95188152Y-97016666D01*
X95188152Y-97016666D02*
X95283390Y-97064285D01*
X95283390Y-97064285D02*
X95331009Y-97111904D01*
X95331009Y-97111904D02*
X95378628Y-97207142D01*
X95378628Y-97207142D02*
X95378628Y-97588094D01*
X95283390Y-96445237D02*
X95235771Y-96540475D01*
X95235771Y-96540475D02*
X95188152Y-96588094D01*
X95188152Y-96588094D02*
X95092914Y-96635713D01*
X95092914Y-96635713D02*
X95045295Y-96635713D01*
X95045295Y-96635713D02*
X94950057Y-96588094D01*
X94950057Y-96588094D02*
X94902438Y-96540475D01*
X94902438Y-96540475D02*
X94854819Y-96445237D01*
X94854819Y-96445237D02*
X94854819Y-96254761D01*
X94854819Y-96254761D02*
X94902438Y-96159523D01*
X94902438Y-96159523D02*
X94950057Y-96111904D01*
X94950057Y-96111904D02*
X95045295Y-96064285D01*
X95045295Y-96064285D02*
X95092914Y-96064285D01*
X95092914Y-96064285D02*
X95188152Y-96111904D01*
X95188152Y-96111904D02*
X95235771Y-96159523D01*
X95235771Y-96159523D02*
X95283390Y-96254761D01*
X95283390Y-96254761D02*
X95283390Y-96445237D01*
X95283390Y-96445237D02*
X95331009Y-96540475D01*
X95331009Y-96540475D02*
X95378628Y-96588094D01*
X95378628Y-96588094D02*
X95473866Y-96635713D01*
X95473866Y-96635713D02*
X95664342Y-96635713D01*
X95664342Y-96635713D02*
X95759580Y-96588094D01*
X95759580Y-96588094D02*
X95807200Y-96540475D01*
X95807200Y-96540475D02*
X95854819Y-96445237D01*
X95854819Y-96445237D02*
X95854819Y-96254761D01*
X95854819Y-96254761D02*
X95807200Y-96159523D01*
X95807200Y-96159523D02*
X95759580Y-96111904D01*
X95759580Y-96111904D02*
X95664342Y-96064285D01*
X95664342Y-96064285D02*
X95473866Y-96064285D01*
X95473866Y-96064285D02*
X95378628Y-96111904D01*
X95378628Y-96111904D02*
X95331009Y-96159523D01*
X95331009Y-96159523D02*
X95283390Y-96254761D01*
X125874819Y-138492857D02*
X125398628Y-138826190D01*
X125874819Y-139064285D02*
X124874819Y-139064285D01*
X124874819Y-139064285D02*
X124874819Y-138683333D01*
X124874819Y-138683333D02*
X124922438Y-138588095D01*
X124922438Y-138588095D02*
X124970057Y-138540476D01*
X124970057Y-138540476D02*
X125065295Y-138492857D01*
X125065295Y-138492857D02*
X125208152Y-138492857D01*
X125208152Y-138492857D02*
X125303390Y-138540476D01*
X125303390Y-138540476D02*
X125351009Y-138588095D01*
X125351009Y-138588095D02*
X125398628Y-138683333D01*
X125398628Y-138683333D02*
X125398628Y-139064285D01*
X125874819Y-137540476D02*
X125874819Y-138111904D01*
X125874819Y-137826190D02*
X124874819Y-137826190D01*
X124874819Y-137826190D02*
X125017676Y-137921428D01*
X125017676Y-137921428D02*
X125112914Y-138016666D01*
X125112914Y-138016666D02*
X125160533Y-138111904D01*
X124874819Y-137207142D02*
X124874819Y-136588095D01*
X124874819Y-136588095D02*
X125255771Y-136921428D01*
X125255771Y-136921428D02*
X125255771Y-136778571D01*
X125255771Y-136778571D02*
X125303390Y-136683333D01*
X125303390Y-136683333D02*
X125351009Y-136635714D01*
X125351009Y-136635714D02*
X125446247Y-136588095D01*
X125446247Y-136588095D02*
X125684342Y-136588095D01*
X125684342Y-136588095D02*
X125779580Y-136635714D01*
X125779580Y-136635714D02*
X125827200Y-136683333D01*
X125827200Y-136683333D02*
X125874819Y-136778571D01*
X125874819Y-136778571D02*
X125874819Y-137064285D01*
X125874819Y-137064285D02*
X125827200Y-137159523D01*
X125827200Y-137159523D02*
X125779580Y-137207142D01*
X132434819Y-113928094D02*
X131434819Y-113928094D01*
X131434819Y-113928094D02*
X131434819Y-113689999D01*
X131434819Y-113689999D02*
X131482438Y-113547142D01*
X131482438Y-113547142D02*
X131577676Y-113451904D01*
X131577676Y-113451904D02*
X131672914Y-113404285D01*
X131672914Y-113404285D02*
X131863390Y-113356666D01*
X131863390Y-113356666D02*
X132006247Y-113356666D01*
X132006247Y-113356666D02*
X132196723Y-113404285D01*
X132196723Y-113404285D02*
X132291961Y-113451904D01*
X132291961Y-113451904D02*
X132387200Y-113547142D01*
X132387200Y-113547142D02*
X132434819Y-113689999D01*
X132434819Y-113689999D02*
X132434819Y-113928094D01*
X131768152Y-112499523D02*
X132434819Y-112499523D01*
X131387200Y-112737618D02*
X132101485Y-112975713D01*
X132101485Y-112975713D02*
X132101485Y-112356666D01*
X132754819Y-117261904D02*
X131754819Y-117261904D01*
X132754819Y-116690476D02*
X132183390Y-117119047D01*
X131754819Y-116690476D02*
X132326247Y-117261904D01*
X138561905Y-112554819D02*
X138561905Y-111554819D01*
X138561905Y-111554819D02*
X138800000Y-111554819D01*
X138800000Y-111554819D02*
X138942857Y-111602438D01*
X138942857Y-111602438D02*
X139038095Y-111697676D01*
X139038095Y-111697676D02*
X139085714Y-111792914D01*
X139085714Y-111792914D02*
X139133333Y-111983390D01*
X139133333Y-111983390D02*
X139133333Y-112126247D01*
X139133333Y-112126247D02*
X139085714Y-112316723D01*
X139085714Y-112316723D02*
X139038095Y-112411961D01*
X139038095Y-112411961D02*
X138942857Y-112507200D01*
X138942857Y-112507200D02*
X138800000Y-112554819D01*
X138800000Y-112554819D02*
X138561905Y-112554819D01*
X140038095Y-111554819D02*
X139561905Y-111554819D01*
X139561905Y-111554819D02*
X139514286Y-112031009D01*
X139514286Y-112031009D02*
X139561905Y-111983390D01*
X139561905Y-111983390D02*
X139657143Y-111935771D01*
X139657143Y-111935771D02*
X139895238Y-111935771D01*
X139895238Y-111935771D02*
X139990476Y-111983390D01*
X139990476Y-111983390D02*
X140038095Y-112031009D01*
X140038095Y-112031009D02*
X140085714Y-112126247D01*
X140085714Y-112126247D02*
X140085714Y-112364342D01*
X140085714Y-112364342D02*
X140038095Y-112459580D01*
X140038095Y-112459580D02*
X139990476Y-112507200D01*
X139990476Y-112507200D02*
X139895238Y-112554819D01*
X139895238Y-112554819D02*
X139657143Y-112554819D01*
X139657143Y-112554819D02*
X139561905Y-112507200D01*
X139561905Y-112507200D02*
X139514286Y-112459580D01*
X141854819Y-114781904D02*
X140854819Y-114781904D01*
X141854819Y-114210476D02*
X141283390Y-114639047D01*
X140854819Y-114210476D02*
X141426247Y-114781904D01*
X130833333Y-95959580D02*
X130785714Y-96007200D01*
X130785714Y-96007200D02*
X130642857Y-96054819D01*
X130642857Y-96054819D02*
X130547619Y-96054819D01*
X130547619Y-96054819D02*
X130404762Y-96007200D01*
X130404762Y-96007200D02*
X130309524Y-95911961D01*
X130309524Y-95911961D02*
X130261905Y-95816723D01*
X130261905Y-95816723D02*
X130214286Y-95626247D01*
X130214286Y-95626247D02*
X130214286Y-95483390D01*
X130214286Y-95483390D02*
X130261905Y-95292914D01*
X130261905Y-95292914D02*
X130309524Y-95197676D01*
X130309524Y-95197676D02*
X130404762Y-95102438D01*
X130404762Y-95102438D02*
X130547619Y-95054819D01*
X130547619Y-95054819D02*
X130642857Y-95054819D01*
X130642857Y-95054819D02*
X130785714Y-95102438D01*
X130785714Y-95102438D02*
X130833333Y-95150057D01*
X131214286Y-95150057D02*
X131261905Y-95102438D01*
X131261905Y-95102438D02*
X131357143Y-95054819D01*
X131357143Y-95054819D02*
X131595238Y-95054819D01*
X131595238Y-95054819D02*
X131690476Y-95102438D01*
X131690476Y-95102438D02*
X131738095Y-95150057D01*
X131738095Y-95150057D02*
X131785714Y-95245295D01*
X131785714Y-95245295D02*
X131785714Y-95340533D01*
X131785714Y-95340533D02*
X131738095Y-95483390D01*
X131738095Y-95483390D02*
X131166667Y-96054819D01*
X131166667Y-96054819D02*
X131785714Y-96054819D01*
X156441905Y-137234819D02*
X156441905Y-136234819D01*
X157013333Y-137234819D02*
X156584762Y-136663390D01*
X157013333Y-136234819D02*
X156441905Y-136806247D01*
X157965714Y-137234819D02*
X157394286Y-137234819D01*
X157680000Y-137234819D02*
X157680000Y-136234819D01*
X157680000Y-136234819D02*
X157584762Y-136377676D01*
X157584762Y-136377676D02*
X157489524Y-136472914D01*
X157489524Y-136472914D02*
X157394286Y-136520533D01*
X142733333Y-112754819D02*
X142400000Y-112278628D01*
X142161905Y-112754819D02*
X142161905Y-111754819D01*
X142161905Y-111754819D02*
X142542857Y-111754819D01*
X142542857Y-111754819D02*
X142638095Y-111802438D01*
X142638095Y-111802438D02*
X142685714Y-111850057D01*
X142685714Y-111850057D02*
X142733333Y-111945295D01*
X142733333Y-111945295D02*
X142733333Y-112088152D01*
X142733333Y-112088152D02*
X142685714Y-112183390D01*
X142685714Y-112183390D02*
X142638095Y-112231009D01*
X142638095Y-112231009D02*
X142542857Y-112278628D01*
X142542857Y-112278628D02*
X142161905Y-112278628D01*
X143209524Y-112754819D02*
X143400000Y-112754819D01*
X143400000Y-112754819D02*
X143495238Y-112707200D01*
X143495238Y-112707200D02*
X143542857Y-112659580D01*
X143542857Y-112659580D02*
X143638095Y-112516723D01*
X143638095Y-112516723D02*
X143685714Y-112326247D01*
X143685714Y-112326247D02*
X143685714Y-111945295D01*
X143685714Y-111945295D02*
X143638095Y-111850057D01*
X143638095Y-111850057D02*
X143590476Y-111802438D01*
X143590476Y-111802438D02*
X143495238Y-111754819D01*
X143495238Y-111754819D02*
X143304762Y-111754819D01*
X143304762Y-111754819D02*
X143209524Y-111802438D01*
X143209524Y-111802438D02*
X143161905Y-111850057D01*
X143161905Y-111850057D02*
X143114286Y-111945295D01*
X143114286Y-111945295D02*
X143114286Y-112183390D01*
X143114286Y-112183390D02*
X143161905Y-112278628D01*
X143161905Y-112278628D02*
X143209524Y-112326247D01*
X143209524Y-112326247D02*
X143304762Y-112373866D01*
X143304762Y-112373866D02*
X143495238Y-112373866D01*
X143495238Y-112373866D02*
X143590476Y-112326247D01*
X143590476Y-112326247D02*
X143638095Y-112278628D01*
X143638095Y-112278628D02*
X143685714Y-112183390D01*
X124474819Y-90266666D02*
X123998628Y-90599999D01*
X124474819Y-90838094D02*
X123474819Y-90838094D01*
X123474819Y-90838094D02*
X123474819Y-90457142D01*
X123474819Y-90457142D02*
X123522438Y-90361904D01*
X123522438Y-90361904D02*
X123570057Y-90314285D01*
X123570057Y-90314285D02*
X123665295Y-90266666D01*
X123665295Y-90266666D02*
X123808152Y-90266666D01*
X123808152Y-90266666D02*
X123903390Y-90314285D01*
X123903390Y-90314285D02*
X123951009Y-90361904D01*
X123951009Y-90361904D02*
X123998628Y-90457142D01*
X123998628Y-90457142D02*
X123998628Y-90838094D01*
X123474819Y-89361904D02*
X123474819Y-89838094D01*
X123474819Y-89838094D02*
X123951009Y-89885713D01*
X123951009Y-89885713D02*
X123903390Y-89838094D01*
X123903390Y-89838094D02*
X123855771Y-89742856D01*
X123855771Y-89742856D02*
X123855771Y-89504761D01*
X123855771Y-89504761D02*
X123903390Y-89409523D01*
X123903390Y-89409523D02*
X123951009Y-89361904D01*
X123951009Y-89361904D02*
X124046247Y-89314285D01*
X124046247Y-89314285D02*
X124284342Y-89314285D01*
X124284342Y-89314285D02*
X124379580Y-89361904D01*
X124379580Y-89361904D02*
X124427200Y-89409523D01*
X124427200Y-89409523D02*
X124474819Y-89504761D01*
X124474819Y-89504761D02*
X124474819Y-89742856D01*
X124474819Y-89742856D02*
X124427200Y-89838094D01*
X124427200Y-89838094D02*
X124379580Y-89885713D01*
X161009580Y-109642857D02*
X161057200Y-109690476D01*
X161057200Y-109690476D02*
X161104819Y-109833333D01*
X161104819Y-109833333D02*
X161104819Y-109928571D01*
X161104819Y-109928571D02*
X161057200Y-110071428D01*
X161057200Y-110071428D02*
X160961961Y-110166666D01*
X160961961Y-110166666D02*
X160866723Y-110214285D01*
X160866723Y-110214285D02*
X160676247Y-110261904D01*
X160676247Y-110261904D02*
X160533390Y-110261904D01*
X160533390Y-110261904D02*
X160342914Y-110214285D01*
X160342914Y-110214285D02*
X160247676Y-110166666D01*
X160247676Y-110166666D02*
X160152438Y-110071428D01*
X160152438Y-110071428D02*
X160104819Y-109928571D01*
X160104819Y-109928571D02*
X160104819Y-109833333D01*
X160104819Y-109833333D02*
X160152438Y-109690476D01*
X160152438Y-109690476D02*
X160200057Y-109642857D01*
X161104819Y-108690476D02*
X161104819Y-109261904D01*
X161104819Y-108976190D02*
X160104819Y-108976190D01*
X160104819Y-108976190D02*
X160247676Y-109071428D01*
X160247676Y-109071428D02*
X160342914Y-109166666D01*
X160342914Y-109166666D02*
X160390533Y-109261904D01*
X160104819Y-108357142D02*
X160104819Y-107738095D01*
X160104819Y-107738095D02*
X160485771Y-108071428D01*
X160485771Y-108071428D02*
X160485771Y-107928571D01*
X160485771Y-107928571D02*
X160533390Y-107833333D01*
X160533390Y-107833333D02*
X160581009Y-107785714D01*
X160581009Y-107785714D02*
X160676247Y-107738095D01*
X160676247Y-107738095D02*
X160914342Y-107738095D01*
X160914342Y-107738095D02*
X161009580Y-107785714D01*
X161009580Y-107785714D02*
X161057200Y-107833333D01*
X161057200Y-107833333D02*
X161104819Y-107928571D01*
X161104819Y-107928571D02*
X161104819Y-108214285D01*
X161104819Y-108214285D02*
X161057200Y-108309523D01*
X161057200Y-108309523D02*
X161009580Y-108357142D01*
X132033333Y-126884819D02*
X131700000Y-126408628D01*
X131461905Y-126884819D02*
X131461905Y-125884819D01*
X131461905Y-125884819D02*
X131842857Y-125884819D01*
X131842857Y-125884819D02*
X131938095Y-125932438D01*
X131938095Y-125932438D02*
X131985714Y-125980057D01*
X131985714Y-125980057D02*
X132033333Y-126075295D01*
X132033333Y-126075295D02*
X132033333Y-126218152D01*
X132033333Y-126218152D02*
X131985714Y-126313390D01*
X131985714Y-126313390D02*
X131938095Y-126361009D01*
X131938095Y-126361009D02*
X131842857Y-126408628D01*
X131842857Y-126408628D02*
X131461905Y-126408628D01*
X132985714Y-126884819D02*
X132414286Y-126884819D01*
X132700000Y-126884819D02*
X132700000Y-125884819D01*
X132700000Y-125884819D02*
X132604762Y-126027676D01*
X132604762Y-126027676D02*
X132509524Y-126122914D01*
X132509524Y-126122914D02*
X132414286Y-126170533D01*
X161059580Y-106942857D02*
X161107200Y-106990476D01*
X161107200Y-106990476D02*
X161154819Y-107133333D01*
X161154819Y-107133333D02*
X161154819Y-107228571D01*
X161154819Y-107228571D02*
X161107200Y-107371428D01*
X161107200Y-107371428D02*
X161011961Y-107466666D01*
X161011961Y-107466666D02*
X160916723Y-107514285D01*
X160916723Y-107514285D02*
X160726247Y-107561904D01*
X160726247Y-107561904D02*
X160583390Y-107561904D01*
X160583390Y-107561904D02*
X160392914Y-107514285D01*
X160392914Y-107514285D02*
X160297676Y-107466666D01*
X160297676Y-107466666D02*
X160202438Y-107371428D01*
X160202438Y-107371428D02*
X160154819Y-107228571D01*
X160154819Y-107228571D02*
X160154819Y-107133333D01*
X160154819Y-107133333D02*
X160202438Y-106990476D01*
X160202438Y-106990476D02*
X160250057Y-106942857D01*
X161154819Y-105990476D02*
X161154819Y-106561904D01*
X161154819Y-106276190D02*
X160154819Y-106276190D01*
X160154819Y-106276190D02*
X160297676Y-106371428D01*
X160297676Y-106371428D02*
X160392914Y-106466666D01*
X160392914Y-106466666D02*
X160440533Y-106561904D01*
X160488152Y-105133333D02*
X161154819Y-105133333D01*
X160107200Y-105371428D02*
X160821485Y-105609523D01*
X160821485Y-105609523D02*
X160821485Y-104990476D01*
X122133333Y-82359580D02*
X122085714Y-82407200D01*
X122085714Y-82407200D02*
X121942857Y-82454819D01*
X121942857Y-82454819D02*
X121847619Y-82454819D01*
X121847619Y-82454819D02*
X121704762Y-82407200D01*
X121704762Y-82407200D02*
X121609524Y-82311961D01*
X121609524Y-82311961D02*
X121561905Y-82216723D01*
X121561905Y-82216723D02*
X121514286Y-82026247D01*
X121514286Y-82026247D02*
X121514286Y-81883390D01*
X121514286Y-81883390D02*
X121561905Y-81692914D01*
X121561905Y-81692914D02*
X121609524Y-81597676D01*
X121609524Y-81597676D02*
X121704762Y-81502438D01*
X121704762Y-81502438D02*
X121847619Y-81454819D01*
X121847619Y-81454819D02*
X121942857Y-81454819D01*
X121942857Y-81454819D02*
X122085714Y-81502438D01*
X122085714Y-81502438D02*
X122133333Y-81550057D01*
X122990476Y-81454819D02*
X122800000Y-81454819D01*
X122800000Y-81454819D02*
X122704762Y-81502438D01*
X122704762Y-81502438D02*
X122657143Y-81550057D01*
X122657143Y-81550057D02*
X122561905Y-81692914D01*
X122561905Y-81692914D02*
X122514286Y-81883390D01*
X122514286Y-81883390D02*
X122514286Y-82264342D01*
X122514286Y-82264342D02*
X122561905Y-82359580D01*
X122561905Y-82359580D02*
X122609524Y-82407200D01*
X122609524Y-82407200D02*
X122704762Y-82454819D01*
X122704762Y-82454819D02*
X122895238Y-82454819D01*
X122895238Y-82454819D02*
X122990476Y-82407200D01*
X122990476Y-82407200D02*
X123038095Y-82359580D01*
X123038095Y-82359580D02*
X123085714Y-82264342D01*
X123085714Y-82264342D02*
X123085714Y-82026247D01*
X123085714Y-82026247D02*
X123038095Y-81931009D01*
X123038095Y-81931009D02*
X122990476Y-81883390D01*
X122990476Y-81883390D02*
X122895238Y-81835771D01*
X122895238Y-81835771D02*
X122704762Y-81835771D01*
X122704762Y-81835771D02*
X122609524Y-81883390D01*
X122609524Y-81883390D02*
X122561905Y-81931009D01*
X122561905Y-81931009D02*
X122514286Y-82026247D01*
X146174819Y-98142857D02*
X145698628Y-98476190D01*
X146174819Y-98714285D02*
X145174819Y-98714285D01*
X145174819Y-98714285D02*
X145174819Y-98333333D01*
X145174819Y-98333333D02*
X145222438Y-98238095D01*
X145222438Y-98238095D02*
X145270057Y-98190476D01*
X145270057Y-98190476D02*
X145365295Y-98142857D01*
X145365295Y-98142857D02*
X145508152Y-98142857D01*
X145508152Y-98142857D02*
X145603390Y-98190476D01*
X145603390Y-98190476D02*
X145651009Y-98238095D01*
X145651009Y-98238095D02*
X145698628Y-98333333D01*
X145698628Y-98333333D02*
X145698628Y-98714285D01*
X146174819Y-97190476D02*
X146174819Y-97761904D01*
X146174819Y-97476190D02*
X145174819Y-97476190D01*
X145174819Y-97476190D02*
X145317676Y-97571428D01*
X145317676Y-97571428D02*
X145412914Y-97666666D01*
X145412914Y-97666666D02*
X145460533Y-97761904D01*
X145174819Y-96857142D02*
X145174819Y-96190476D01*
X145174819Y-96190476D02*
X146174819Y-96619047D01*
X128109580Y-122316666D02*
X128157200Y-122364285D01*
X128157200Y-122364285D02*
X128204819Y-122507142D01*
X128204819Y-122507142D02*
X128204819Y-122602380D01*
X128204819Y-122602380D02*
X128157200Y-122745237D01*
X128157200Y-122745237D02*
X128061961Y-122840475D01*
X128061961Y-122840475D02*
X127966723Y-122888094D01*
X127966723Y-122888094D02*
X127776247Y-122935713D01*
X127776247Y-122935713D02*
X127633390Y-122935713D01*
X127633390Y-122935713D02*
X127442914Y-122888094D01*
X127442914Y-122888094D02*
X127347676Y-122840475D01*
X127347676Y-122840475D02*
X127252438Y-122745237D01*
X127252438Y-122745237D02*
X127204819Y-122602380D01*
X127204819Y-122602380D02*
X127204819Y-122507142D01*
X127204819Y-122507142D02*
X127252438Y-122364285D01*
X127252438Y-122364285D02*
X127300057Y-122316666D01*
X128204819Y-121840475D02*
X128204819Y-121649999D01*
X128204819Y-121649999D02*
X128157200Y-121554761D01*
X128157200Y-121554761D02*
X128109580Y-121507142D01*
X128109580Y-121507142D02*
X127966723Y-121411904D01*
X127966723Y-121411904D02*
X127776247Y-121364285D01*
X127776247Y-121364285D02*
X127395295Y-121364285D01*
X127395295Y-121364285D02*
X127300057Y-121411904D01*
X127300057Y-121411904D02*
X127252438Y-121459523D01*
X127252438Y-121459523D02*
X127204819Y-121554761D01*
X127204819Y-121554761D02*
X127204819Y-121745237D01*
X127204819Y-121745237D02*
X127252438Y-121840475D01*
X127252438Y-121840475D02*
X127300057Y-121888094D01*
X127300057Y-121888094D02*
X127395295Y-121935713D01*
X127395295Y-121935713D02*
X127633390Y-121935713D01*
X127633390Y-121935713D02*
X127728628Y-121888094D01*
X127728628Y-121888094D02*
X127776247Y-121840475D01*
X127776247Y-121840475D02*
X127823866Y-121745237D01*
X127823866Y-121745237D02*
X127823866Y-121554761D01*
X127823866Y-121554761D02*
X127776247Y-121459523D01*
X127776247Y-121459523D02*
X127728628Y-121411904D01*
X127728628Y-121411904D02*
X127633390Y-121364285D01*
X143876667Y-139407200D02*
X144019524Y-139454819D01*
X144019524Y-139454819D02*
X144257619Y-139454819D01*
X144257619Y-139454819D02*
X144352857Y-139407200D01*
X144352857Y-139407200D02*
X144400476Y-139359580D01*
X144400476Y-139359580D02*
X144448095Y-139264342D01*
X144448095Y-139264342D02*
X144448095Y-139169104D01*
X144448095Y-139169104D02*
X144400476Y-139073866D01*
X144400476Y-139073866D02*
X144352857Y-139026247D01*
X144352857Y-139026247D02*
X144257619Y-138978628D01*
X144257619Y-138978628D02*
X144067143Y-138931009D01*
X144067143Y-138931009D02*
X143971905Y-138883390D01*
X143971905Y-138883390D02*
X143924286Y-138835771D01*
X143924286Y-138835771D02*
X143876667Y-138740533D01*
X143876667Y-138740533D02*
X143876667Y-138645295D01*
X143876667Y-138645295D02*
X143924286Y-138550057D01*
X143924286Y-138550057D02*
X143971905Y-138502438D01*
X143971905Y-138502438D02*
X144067143Y-138454819D01*
X144067143Y-138454819D02*
X144305238Y-138454819D01*
X144305238Y-138454819D02*
X144448095Y-138502438D01*
X144781429Y-138454819D02*
X145019524Y-139454819D01*
X145019524Y-139454819D02*
X145210000Y-138740533D01*
X145210000Y-138740533D02*
X145400476Y-139454819D01*
X145400476Y-139454819D02*
X145638572Y-138454819D01*
X145971905Y-138550057D02*
X146019524Y-138502438D01*
X146019524Y-138502438D02*
X146114762Y-138454819D01*
X146114762Y-138454819D02*
X146352857Y-138454819D01*
X146352857Y-138454819D02*
X146448095Y-138502438D01*
X146448095Y-138502438D02*
X146495714Y-138550057D01*
X146495714Y-138550057D02*
X146543333Y-138645295D01*
X146543333Y-138645295D02*
X146543333Y-138740533D01*
X146543333Y-138740533D02*
X146495714Y-138883390D01*
X146495714Y-138883390D02*
X145924286Y-139454819D01*
X145924286Y-139454819D02*
X146543333Y-139454819D01*
D11*
%TO.C,J7*%
X140390000Y-89730000D02*
X140390000Y-88400000D01*
X141720000Y-89730000D02*
X140390000Y-89730000D01*
X142990000Y-89730000D02*
X148130000Y-89730000D01*
X142990000Y-89730000D02*
X142990000Y-87130000D01*
X148130000Y-89730000D02*
X148130000Y-84530000D01*
X140390000Y-87130000D02*
X140390000Y-84530000D01*
X142990000Y-87130000D02*
X140390000Y-87130000D01*
X140390000Y-84530000D02*
X148130000Y-84530000D01*
%TO.C,C4*%
X144579000Y-94120000D02*
X143321000Y-94120000D01*
X144579000Y-92280000D02*
X143321000Y-92280000D01*
%TO.C,R2*%
X149440000Y-128800000D02*
X148670000Y-128800000D01*
X148670000Y-130170000D02*
X148670000Y-127430000D01*
X148670000Y-127430000D02*
X142130000Y-127430000D01*
X142130000Y-130170000D02*
X148670000Y-130170000D01*
X142130000Y-127430000D02*
X142130000Y-130170000D01*
X141360000Y-128800000D02*
X142130000Y-128800000D01*
%TO.C,R21*%
X106440000Y-103700000D02*
X105670000Y-103700000D01*
X105670000Y-105070000D02*
X105670000Y-102330000D01*
X105670000Y-102330000D02*
X99130000Y-102330000D01*
X99130000Y-105070000D02*
X105670000Y-105070000D01*
X99130000Y-102330000D02*
X99130000Y-105070000D01*
X98360000Y-103700000D02*
X99130000Y-103700000D01*
%TO.C,U5*%
X134010000Y-123900000D02*
X134010000Y-120300000D01*
X129560000Y-122100000D02*
G75*
G03*
X133998478Y-123938478I2600000J0D01*
G01*
X133998478Y-120261522D02*
G75*
G03*
X129560000Y-122100000I-1838478J-1838478D01*
G01*
%TO.C,J3*%
X93330000Y-102455000D02*
X92000000Y-102455000D01*
X93330000Y-101125000D02*
X93330000Y-102455000D01*
X93330000Y-99855000D02*
X93330000Y-97255000D01*
X93330000Y-99855000D02*
X90670000Y-99855000D01*
X93330000Y-97255000D02*
X90670000Y-97255000D01*
X90670000Y-99855000D02*
X90670000Y-97255000D01*
%TO.C,D7*%
X115300000Y-115960000D02*
X115300000Y-115310000D01*
X114180000Y-115310000D02*
X116420000Y-115310000D01*
X116420000Y-115310000D02*
X116420000Y-111070000D01*
X114180000Y-114710000D02*
X116420000Y-114710000D01*
X114180000Y-114590000D02*
X116420000Y-114590000D01*
X114180000Y-114470000D02*
X116420000Y-114470000D01*
X114180000Y-111070000D02*
X114180000Y-115310000D01*
X116420000Y-111070000D02*
X114180000Y-111070000D01*
X115300000Y-110420000D02*
X115300000Y-111070000D01*
%TO.C,J2*%
X90670000Y-81595000D02*
X92000000Y-81595000D01*
X90670000Y-82925000D02*
X90670000Y-81595000D01*
X90670000Y-84195000D02*
X90670000Y-86795000D01*
X90670000Y-84195000D02*
X93330000Y-84195000D01*
X90670000Y-86795000D02*
X93330000Y-86795000D01*
X93330000Y-84195000D02*
X93330000Y-86795000D01*
%TO.C,D1*%
X99030000Y-116500000D02*
X99680000Y-116500000D01*
X99680000Y-115380000D02*
X99680000Y-117620000D01*
X99680000Y-117620000D02*
X103920000Y-117620000D01*
X100280000Y-115380000D02*
X100280000Y-117620000D01*
X100400000Y-115380000D02*
X100400000Y-117620000D01*
X100520000Y-115380000D02*
X100520000Y-117620000D01*
X103920000Y-115380000D02*
X99680000Y-115380000D01*
X103920000Y-117620000D02*
X103920000Y-115380000D01*
X104570000Y-116500000D02*
X103920000Y-116500000D01*
%TO.C,C3*%
X135038748Y-96565000D02*
X135561252Y-96565000D01*
X135038748Y-98035000D02*
X135561252Y-98035000D01*
%TO.C,J4*%
X106430000Y-135970000D02*
X106430000Y-137300000D01*
X105100000Y-135970000D02*
X106430000Y-135970000D01*
X103830000Y-135970000D02*
X101230000Y-135970000D01*
X103830000Y-135970000D02*
X103830000Y-138630000D01*
X101230000Y-135970000D02*
X101230000Y-138630000D01*
X103830000Y-138630000D02*
X101230000Y-138630000D01*
%TO.C,R20*%
X156960000Y-111000000D02*
X156190000Y-111000000D01*
X156190000Y-112370000D02*
X156190000Y-109630000D01*
X156190000Y-109630000D02*
X149650000Y-109630000D01*
X149650000Y-112370000D02*
X156190000Y-112370000D01*
X149650000Y-109630000D02*
X149650000Y-112370000D01*
X148880000Y-111000000D02*
X149650000Y-111000000D01*
%TO.C,C5*%
X130571000Y-105980000D02*
X131829000Y-105980000D01*
X130571000Y-107820000D02*
X131829000Y-107820000D01*
%TO.C,R7*%
X98420000Y-93650000D02*
X99190000Y-93650000D01*
X99190000Y-92280000D02*
X99190000Y-95020000D01*
X99190000Y-95020000D02*
X105730000Y-95020000D01*
X105730000Y-92280000D02*
X99190000Y-92280000D01*
X105730000Y-95020000D02*
X105730000Y-92280000D01*
X106500000Y-93650000D02*
X105730000Y-93650000D01*
%TO.C,R11*%
X146700000Y-115560000D02*
X146700000Y-116330000D01*
X148070000Y-116330000D02*
X145330000Y-116330000D01*
X145330000Y-116330000D02*
X145330000Y-122870000D01*
X148070000Y-122870000D02*
X148070000Y-116330000D01*
X145330000Y-122870000D02*
X148070000Y-122870000D01*
X146700000Y-123640000D02*
X146700000Y-122870000D01*
%TO.C,U4*%
X98770000Y-129130000D02*
X109050000Y-129130000D01*
X109050000Y-129130000D02*
X109050000Y-122660000D01*
X98770000Y-126895000D02*
X98770000Y-129130000D01*
X98770000Y-122660000D02*
X98770000Y-124895000D01*
X109050000Y-122660000D02*
X98770000Y-122660000D01*
X98770000Y-126895000D02*
G75*
G03*
X98770000Y-124895000I0J1000000D01*
G01*
%TO.C,D3*%
X129900000Y-115960000D02*
X129900000Y-115310000D01*
X128780000Y-115310000D02*
X131020000Y-115310000D01*
X131020000Y-115310000D02*
X131020000Y-111070000D01*
X128780000Y-114710000D02*
X131020000Y-114710000D01*
X128780000Y-114590000D02*
X131020000Y-114590000D01*
X128780000Y-114470000D02*
X131020000Y-114470000D01*
X128780000Y-111070000D02*
X128780000Y-115310000D01*
X131020000Y-111070000D02*
X128780000Y-111070000D01*
X129900000Y-110420000D02*
X129900000Y-111070000D01*
%TO.C,D2*%
X99030000Y-112300000D02*
X99680000Y-112300000D01*
X99680000Y-111180000D02*
X99680000Y-113420000D01*
X99680000Y-113420000D02*
X103920000Y-113420000D01*
X100280000Y-111180000D02*
X100280000Y-113420000D01*
X100400000Y-111180000D02*
X100400000Y-113420000D01*
X100520000Y-111180000D02*
X100520000Y-113420000D01*
X103920000Y-111180000D02*
X99680000Y-111180000D01*
X103920000Y-113420000D02*
X103920000Y-111180000D01*
X104570000Y-112300000D02*
X103920000Y-112300000D01*
%TO.C,Q1*%
X163930000Y-119450000D02*
X167530000Y-119450000D01*
X165730000Y-115000000D02*
G75*
G03*
X163891522Y-119438478I0J-2600000D01*
G01*
X167568478Y-119438478D02*
G75*
G03*
X165730000Y-115000000I-1838478J1838478D01*
G01*
%TO.C,C11*%
X163271000Y-99480000D02*
X164529000Y-99480000D01*
X163271000Y-101320000D02*
X164529000Y-101320000D01*
%TO.C,C12*%
X163271000Y-96880000D02*
X164529000Y-96880000D01*
X163271000Y-98720000D02*
X164529000Y-98720000D01*
%TO.C,D6*%
X111100000Y-115960000D02*
X111100000Y-115310000D01*
X109980000Y-115310000D02*
X112220000Y-115310000D01*
X112220000Y-115310000D02*
X112220000Y-111070000D01*
X109980000Y-114710000D02*
X112220000Y-114710000D01*
X109980000Y-114590000D02*
X112220000Y-114590000D01*
X109980000Y-114470000D02*
X112220000Y-114470000D01*
X109980000Y-111070000D02*
X109980000Y-115310000D01*
X112220000Y-111070000D02*
X109980000Y-111070000D01*
X111100000Y-110420000D02*
X111100000Y-111070000D01*
D10*
%TO.C,U8*%
X129715000Y-92845000D02*
X129940000Y-92845000D01*
X129715000Y-92845000D02*
X129715000Y-92520000D01*
X129940000Y-92845000D02*
X129940000Y-94270000D01*
X136965000Y-92845000D02*
X136640000Y-92845000D01*
X136965000Y-92845000D02*
X136965000Y-92520000D01*
X129715000Y-85595000D02*
X129715000Y-85920000D01*
X129715000Y-85595000D02*
X130040000Y-85595000D01*
X136965000Y-85595000D02*
X136965000Y-85920000D01*
X136965000Y-85595000D02*
X136640000Y-85595000D01*
D11*
%TO.C,D9*%
X125700000Y-115960000D02*
X125700000Y-115310000D01*
X124580000Y-115310000D02*
X126820000Y-115310000D01*
X126820000Y-115310000D02*
X126820000Y-111070000D01*
X124580000Y-114710000D02*
X126820000Y-114710000D01*
X124580000Y-114590000D02*
X126820000Y-114590000D01*
X124580000Y-114470000D02*
X126820000Y-114470000D01*
X124580000Y-111070000D02*
X124580000Y-115310000D01*
X126820000Y-111070000D02*
X124580000Y-111070000D01*
X125700000Y-110420000D02*
X125700000Y-111070000D01*
%TO.C,C15*%
X164529000Y-104120000D02*
X163271000Y-104120000D01*
X164529000Y-102280000D02*
X163271000Y-102280000D01*
%TO.C,R14*%
X114060000Y-134900000D02*
X114830000Y-134900000D01*
X114830000Y-133530000D02*
X114830000Y-136270000D01*
X114830000Y-136270000D02*
X121370000Y-136270000D01*
X121370000Y-133530000D02*
X114830000Y-133530000D01*
X121370000Y-136270000D02*
X121370000Y-133530000D01*
X122140000Y-134900000D02*
X121370000Y-134900000D01*
%TO.C,U1*%
X115035000Y-96170000D02*
X115035000Y-106450000D01*
X115035000Y-106450000D02*
X119535000Y-106450000D01*
X116285000Y-96170000D02*
X115035000Y-96170000D01*
X119535000Y-96170000D02*
X118285000Y-96170000D01*
X119535000Y-106450000D02*
X119535000Y-96170000D01*
X116285000Y-96170000D02*
G75*
G03*
X118285000Y-96170000I1000000J0D01*
G01*
%TO.C,U2*%
X152775000Y-84790000D02*
X152775000Y-95070000D01*
X152775000Y-95070000D02*
X157275000Y-95070000D01*
X154025000Y-84790000D02*
X152775000Y-84790000D01*
X157275000Y-84790000D02*
X156025000Y-84790000D01*
X157275000Y-95070000D02*
X157275000Y-84790000D01*
X154025000Y-84790000D02*
G75*
G03*
X156025000Y-84790000I1000000J0D01*
G01*
%TO.C,U3*%
X118160000Y-84770000D02*
X118160000Y-80129000D01*
X118160000Y-84770000D02*
X107920000Y-84770000D01*
X118160000Y-83260000D02*
X107920000Y-83260000D01*
X118160000Y-80129000D02*
X107920000Y-80129000D01*
X114890000Y-84770000D02*
X114890000Y-83260000D01*
X111189000Y-84770000D02*
X111189000Y-83260000D01*
X107920000Y-84770000D02*
X107920000Y-80129000D01*
%TO.C,R15*%
X122140000Y-131700000D02*
X121370000Y-131700000D01*
X121370000Y-133070000D02*
X121370000Y-130330000D01*
X121370000Y-130330000D02*
X114830000Y-130330000D01*
X114830000Y-133070000D02*
X121370000Y-133070000D01*
X114830000Y-130330000D02*
X114830000Y-133070000D01*
X114060000Y-131700000D02*
X114830000Y-131700000D01*
%TO.C,R16*%
X98360000Y-107000000D02*
X99130000Y-107000000D01*
X99130000Y-105630000D02*
X99130000Y-108370000D01*
X99130000Y-108370000D02*
X105670000Y-108370000D01*
X105670000Y-105630000D02*
X99130000Y-105630000D01*
X105670000Y-108370000D02*
X105670000Y-105630000D01*
X106440000Y-107000000D02*
X105670000Y-107000000D01*
%TO.C,R4*%
X112880000Y-86600000D02*
X113650000Y-86600000D01*
X113650000Y-85230000D02*
X113650000Y-87970000D01*
X113650000Y-87970000D02*
X120190000Y-87970000D01*
X120190000Y-85230000D02*
X113650000Y-85230000D01*
X120190000Y-87970000D02*
X120190000Y-85230000D01*
X120960000Y-86600000D02*
X120190000Y-86600000D01*
%TO.C,J1*%
X89755000Y-48030000D02*
X91025000Y-48030000D01*
X89755000Y-49300000D02*
X89755000Y-48030000D01*
X92067929Y-51460000D02*
X92465000Y-51460000D01*
X92067929Y-52220000D02*
X92465000Y-52220000D01*
X92067929Y-54000000D02*
X92465000Y-54000000D01*
X92067929Y-54760000D02*
X92465000Y-54760000D01*
X92067929Y-56540000D02*
X92465000Y-56540000D01*
X92067929Y-57300000D02*
X92465000Y-57300000D01*
X92135000Y-48920000D02*
X92465000Y-48920000D01*
X92135000Y-49680000D02*
X92465000Y-49680000D01*
X92465000Y-47970000D02*
X92465000Y-58250000D01*
X92465000Y-50570000D02*
X95125000Y-50570000D01*
X92465000Y-53110000D02*
X95125000Y-53110000D01*
X92465000Y-55650000D02*
X95125000Y-55650000D01*
X92465000Y-58250000D02*
X95125000Y-58250000D01*
X95125000Y-47970000D02*
X92465000Y-47970000D01*
X95125000Y-48920000D02*
X101125000Y-48920000D01*
X95125000Y-48980000D02*
X101125000Y-48980000D01*
X95125000Y-49100000D02*
X101125000Y-49100000D01*
X95125000Y-49220000D02*
X101125000Y-49220000D01*
X95125000Y-49340000D02*
X101125000Y-49340000D01*
X95125000Y-49460000D02*
X101125000Y-49460000D01*
X95125000Y-49580000D02*
X101125000Y-49580000D01*
X95125000Y-51460000D02*
X101125000Y-51460000D01*
X95125000Y-54000000D02*
X101125000Y-54000000D01*
X95125000Y-56540000D02*
X101125000Y-56540000D01*
X95125000Y-58250000D02*
X95125000Y-47970000D01*
X101125000Y-48920000D02*
X101125000Y-49680000D01*
X101125000Y-49680000D02*
X95125000Y-49680000D01*
X101125000Y-51460000D02*
X101125000Y-52220000D01*
X101125000Y-52220000D02*
X95125000Y-52220000D01*
X101125000Y-54000000D02*
X101125000Y-54760000D01*
X101125000Y-54760000D02*
X95125000Y-54760000D01*
X101125000Y-56540000D02*
X101125000Y-57300000D01*
X101125000Y-57300000D02*
X95125000Y-57300000D01*
%TO.C,SW1*%
X129530000Y-133700000D02*
X129530000Y-135200000D01*
X130780000Y-137700000D02*
X135280000Y-137700000D01*
X135280000Y-131200000D02*
X130780000Y-131200000D01*
X136530000Y-135200000D02*
X136530000Y-133700000D01*
%TO.C,R6*%
X98360000Y-100400000D02*
X99130000Y-100400000D01*
X99130000Y-99030000D02*
X99130000Y-101770000D01*
X99130000Y-101770000D02*
X105670000Y-101770000D01*
X105670000Y-99030000D02*
X99130000Y-99030000D01*
X105670000Y-101770000D02*
X105670000Y-99030000D01*
X106440000Y-100400000D02*
X105670000Y-100400000D01*
%TO.C,C7*%
X109275000Y-85445225D02*
X109275000Y-85945225D01*
X109525000Y-85695225D02*
X109025000Y-85695225D01*
X110380000Y-88250000D02*
X105220000Y-88250000D01*
X110380000Y-88290000D02*
X105220000Y-88290000D01*
X110379000Y-88330000D02*
X105221000Y-88330000D01*
X110378000Y-88370000D02*
X105222000Y-88370000D01*
X110376000Y-88410000D02*
X105224000Y-88410000D01*
X110373000Y-88450000D02*
X105227000Y-88450000D01*
X110369000Y-88490000D02*
X108840000Y-88490000D01*
X106760000Y-88490000D02*
X105231000Y-88490000D01*
X110365000Y-88530000D02*
X108840000Y-88530000D01*
X106760000Y-88530000D02*
X105235000Y-88530000D01*
X110361000Y-88570000D02*
X108840000Y-88570000D01*
X106760000Y-88570000D02*
X105239000Y-88570000D01*
X110356000Y-88610000D02*
X108840000Y-88610000D01*
X106760000Y-88610000D02*
X105244000Y-88610000D01*
X110350000Y-88650000D02*
X108840000Y-88650000D01*
X106760000Y-88650000D02*
X105250000Y-88650000D01*
X110343000Y-88690000D02*
X108840000Y-88690000D01*
X106760000Y-88690000D02*
X105257000Y-88690000D01*
X110336000Y-88730000D02*
X108840000Y-88730000D01*
X106760000Y-88730000D02*
X105264000Y-88730000D01*
X110328000Y-88770000D02*
X108840000Y-88770000D01*
X106760000Y-88770000D02*
X105272000Y-88770000D01*
X110320000Y-88810000D02*
X108840000Y-88810000D01*
X106760000Y-88810000D02*
X105280000Y-88810000D01*
X110311000Y-88850000D02*
X108840000Y-88850000D01*
X106760000Y-88850000D02*
X105289000Y-88850000D01*
X110301000Y-88890000D02*
X108840000Y-88890000D01*
X106760000Y-88890000D02*
X105299000Y-88890000D01*
X110291000Y-88930000D02*
X108840000Y-88930000D01*
X106760000Y-88930000D02*
X105309000Y-88930000D01*
X110280000Y-88971000D02*
X108840000Y-88971000D01*
X106760000Y-88971000D02*
X105320000Y-88971000D01*
X110268000Y-89011000D02*
X108840000Y-89011000D01*
X106760000Y-89011000D02*
X105332000Y-89011000D01*
X110255000Y-89051000D02*
X108840000Y-89051000D01*
X106760000Y-89051000D02*
X105345000Y-89051000D01*
X110242000Y-89091000D02*
X108840000Y-89091000D01*
X106760000Y-89091000D02*
X105358000Y-89091000D01*
X110228000Y-89131000D02*
X108840000Y-89131000D01*
X106760000Y-89131000D02*
X105372000Y-89131000D01*
X110214000Y-89171000D02*
X108840000Y-89171000D01*
X106760000Y-89171000D02*
X105386000Y-89171000D01*
X110198000Y-89211000D02*
X108840000Y-89211000D01*
X106760000Y-89211000D02*
X105402000Y-89211000D01*
X110182000Y-89251000D02*
X108840000Y-89251000D01*
X106760000Y-89251000D02*
X105418000Y-89251000D01*
X110165000Y-89291000D02*
X108840000Y-89291000D01*
X106760000Y-89291000D02*
X105435000Y-89291000D01*
X110148000Y-89331000D02*
X108840000Y-89331000D01*
X106760000Y-89331000D02*
X105452000Y-89331000D01*
X110129000Y-89371000D02*
X108840000Y-89371000D01*
X106760000Y-89371000D02*
X105471000Y-89371000D01*
X110110000Y-89411000D02*
X108840000Y-89411000D01*
X106760000Y-89411000D02*
X105490000Y-89411000D01*
X110090000Y-89451000D02*
X108840000Y-89451000D01*
X106760000Y-89451000D02*
X105510000Y-89451000D01*
X110068000Y-89491000D02*
X108840000Y-89491000D01*
X106760000Y-89491000D02*
X105532000Y-89491000D01*
X110047000Y-89531000D02*
X108840000Y-89531000D01*
X106760000Y-89531000D02*
X105553000Y-89531000D01*
X110024000Y-89571000D02*
X108840000Y-89571000D01*
X106760000Y-89571000D02*
X105576000Y-89571000D01*
X110000000Y-89611000D02*
X108840000Y-89611000D01*
X106760000Y-89611000D02*
X105600000Y-89611000D01*
X109975000Y-89651000D02*
X108840000Y-89651000D01*
X106760000Y-89651000D02*
X105625000Y-89651000D01*
X109949000Y-89691000D02*
X108840000Y-89691000D01*
X106760000Y-89691000D02*
X105651000Y-89691000D01*
X109922000Y-89731000D02*
X108840000Y-89731000D01*
X106760000Y-89731000D02*
X105678000Y-89731000D01*
X109895000Y-89771000D02*
X108840000Y-89771000D01*
X106760000Y-89771000D02*
X105705000Y-89771000D01*
X109865000Y-89811000D02*
X108840000Y-89811000D01*
X106760000Y-89811000D02*
X105735000Y-89811000D01*
X109835000Y-89851000D02*
X108840000Y-89851000D01*
X106760000Y-89851000D02*
X105765000Y-89851000D01*
X109804000Y-89891000D02*
X108840000Y-89891000D01*
X106760000Y-89891000D02*
X105796000Y-89891000D01*
X109771000Y-89931000D02*
X108840000Y-89931000D01*
X106760000Y-89931000D02*
X105829000Y-89931000D01*
X109737000Y-89971000D02*
X108840000Y-89971000D01*
X106760000Y-89971000D02*
X105863000Y-89971000D01*
X109701000Y-90011000D02*
X108840000Y-90011000D01*
X106760000Y-90011000D02*
X105899000Y-90011000D01*
X109664000Y-90051000D02*
X108840000Y-90051000D01*
X106760000Y-90051000D02*
X105936000Y-90051000D01*
X109626000Y-90091000D02*
X108840000Y-90091000D01*
X106760000Y-90091000D02*
X105974000Y-90091000D01*
X109585000Y-90131000D02*
X108840000Y-90131000D01*
X106760000Y-90131000D02*
X106015000Y-90131000D01*
X109543000Y-90171000D02*
X108840000Y-90171000D01*
X106760000Y-90171000D02*
X106057000Y-90171000D01*
X109499000Y-90211000D02*
X108840000Y-90211000D01*
X106760000Y-90211000D02*
X106101000Y-90211000D01*
X109453000Y-90251000D02*
X108840000Y-90251000D01*
X106760000Y-90251000D02*
X106147000Y-90251000D01*
X109405000Y-90291000D02*
X108840000Y-90291000D01*
X106760000Y-90291000D02*
X106195000Y-90291000D01*
X109354000Y-90331000D02*
X108840000Y-90331000D01*
X106760000Y-90331000D02*
X106246000Y-90331000D01*
X109300000Y-90371000D02*
X108840000Y-90371000D01*
X106760000Y-90371000D02*
X106300000Y-90371000D01*
X109243000Y-90411000D02*
X108840000Y-90411000D01*
X106760000Y-90411000D02*
X106357000Y-90411000D01*
X109183000Y-90451000D02*
X108840000Y-90451000D01*
X106760000Y-90451000D02*
X106417000Y-90451000D01*
X109119000Y-90491000D02*
X108840000Y-90491000D01*
X106760000Y-90491000D02*
X106481000Y-90491000D01*
X109051000Y-90531000D02*
X108840000Y-90531000D01*
X106760000Y-90531000D02*
X106549000Y-90531000D01*
X108978000Y-90571000D02*
X106622000Y-90571000D01*
X108898000Y-90611000D02*
X106702000Y-90611000D01*
X108811000Y-90651000D02*
X106789000Y-90651000D01*
X108715000Y-90691000D02*
X106885000Y-90691000D01*
X108605000Y-90731000D02*
X106995000Y-90731000D01*
X108477000Y-90771000D02*
X107123000Y-90771000D01*
X108318000Y-90811000D02*
X107282000Y-90811000D01*
X108084000Y-90851000D02*
X107516000Y-90851000D01*
X110420000Y-88250000D02*
G75*
G03*
X110420000Y-88250000I-2620000J0D01*
G01*
%TO.C,J6*%
X166530000Y-93790000D02*
X165200000Y-93790000D01*
X166530000Y-92460000D02*
X166530000Y-93790000D01*
X166530000Y-91190000D02*
X166530000Y-88590000D01*
X166530000Y-91190000D02*
X163870000Y-91190000D01*
X166530000Y-88590000D02*
X163870000Y-88590000D01*
X163870000Y-91190000D02*
X163870000Y-88590000D01*
%TO.C,R3*%
X128760000Y-81500000D02*
X129530000Y-81500000D01*
X129530000Y-80130000D02*
X129530000Y-82870000D01*
X129530000Y-82870000D02*
X136070000Y-82870000D01*
X136070000Y-80130000D02*
X129530000Y-80130000D01*
X136070000Y-82870000D02*
X136070000Y-80130000D01*
X136840000Y-81500000D02*
X136070000Y-81500000D01*
%TO.C,D8*%
X119900000Y-115960000D02*
X119900000Y-115310000D01*
X118780000Y-115310000D02*
X121020000Y-115310000D01*
X121020000Y-115310000D02*
X121020000Y-111070000D01*
X118780000Y-114710000D02*
X121020000Y-114710000D01*
X118780000Y-114590000D02*
X121020000Y-114590000D01*
X118780000Y-114470000D02*
X121020000Y-114470000D01*
X118780000Y-111070000D02*
X118780000Y-115310000D01*
X121020000Y-111070000D02*
X118780000Y-111070000D01*
X119900000Y-110420000D02*
X119900000Y-111070000D01*
%TO.C,C8*%
X117135000Y-119240113D02*
X117135000Y-119740113D01*
X117385000Y-119490113D02*
X116885000Y-119490113D01*
X118240000Y-122044888D02*
X113080000Y-122044888D01*
X118240000Y-122084888D02*
X113080000Y-122084888D01*
X118239000Y-122124888D02*
X113081000Y-122124888D01*
X118238000Y-122164888D02*
X113082000Y-122164888D01*
X118236000Y-122204888D02*
X113084000Y-122204888D01*
X118233000Y-122244888D02*
X113087000Y-122244888D01*
X118229000Y-122284888D02*
X116700000Y-122284888D01*
X114620000Y-122284888D02*
X113091000Y-122284888D01*
X118225000Y-122324888D02*
X116700000Y-122324888D01*
X114620000Y-122324888D02*
X113095000Y-122324888D01*
X118221000Y-122364888D02*
X116700000Y-122364888D01*
X114620000Y-122364888D02*
X113099000Y-122364888D01*
X118216000Y-122404888D02*
X116700000Y-122404888D01*
X114620000Y-122404888D02*
X113104000Y-122404888D01*
X118210000Y-122444888D02*
X116700000Y-122444888D01*
X114620000Y-122444888D02*
X113110000Y-122444888D01*
X118203000Y-122484888D02*
X116700000Y-122484888D01*
X114620000Y-122484888D02*
X113117000Y-122484888D01*
X118196000Y-122524888D02*
X116700000Y-122524888D01*
X114620000Y-122524888D02*
X113124000Y-122524888D01*
X118188000Y-122564888D02*
X116700000Y-122564888D01*
X114620000Y-122564888D02*
X113132000Y-122564888D01*
X118180000Y-122604888D02*
X116700000Y-122604888D01*
X114620000Y-122604888D02*
X113140000Y-122604888D01*
X118171000Y-122644888D02*
X116700000Y-122644888D01*
X114620000Y-122644888D02*
X113149000Y-122644888D01*
X118161000Y-122684888D02*
X116700000Y-122684888D01*
X114620000Y-122684888D02*
X113159000Y-122684888D01*
X118151000Y-122724888D02*
X116700000Y-122724888D01*
X114620000Y-122724888D02*
X113169000Y-122724888D01*
X118140000Y-122765888D02*
X116700000Y-122765888D01*
X114620000Y-122765888D02*
X113180000Y-122765888D01*
X118128000Y-122805888D02*
X116700000Y-122805888D01*
X114620000Y-122805888D02*
X113192000Y-122805888D01*
X118115000Y-122845888D02*
X116700000Y-122845888D01*
X114620000Y-122845888D02*
X113205000Y-122845888D01*
X118102000Y-122885888D02*
X116700000Y-122885888D01*
X114620000Y-122885888D02*
X113218000Y-122885888D01*
X118088000Y-122925888D02*
X116700000Y-122925888D01*
X114620000Y-122925888D02*
X113232000Y-122925888D01*
X118074000Y-122965888D02*
X116700000Y-122965888D01*
X114620000Y-122965888D02*
X113246000Y-122965888D01*
X118058000Y-123005888D02*
X116700000Y-123005888D01*
X114620000Y-123005888D02*
X113262000Y-123005888D01*
X118042000Y-123045888D02*
X116700000Y-123045888D01*
X114620000Y-123045888D02*
X113278000Y-123045888D01*
X118025000Y-123085888D02*
X116700000Y-123085888D01*
X114620000Y-123085888D02*
X113295000Y-123085888D01*
X118008000Y-123125888D02*
X116700000Y-123125888D01*
X114620000Y-123125888D02*
X113312000Y-123125888D01*
X117989000Y-123165888D02*
X116700000Y-123165888D01*
X114620000Y-123165888D02*
X113331000Y-123165888D01*
X117970000Y-123205888D02*
X116700000Y-123205888D01*
X114620000Y-123205888D02*
X113350000Y-123205888D01*
X117950000Y-123245888D02*
X116700000Y-123245888D01*
X114620000Y-123245888D02*
X113370000Y-123245888D01*
X117928000Y-123285888D02*
X116700000Y-123285888D01*
X114620000Y-123285888D02*
X113392000Y-123285888D01*
X117907000Y-123325888D02*
X116700000Y-123325888D01*
X114620000Y-123325888D02*
X113413000Y-123325888D01*
X117884000Y-123365888D02*
X116700000Y-123365888D01*
X114620000Y-123365888D02*
X113436000Y-123365888D01*
X117860000Y-123405888D02*
X116700000Y-123405888D01*
X114620000Y-123405888D02*
X113460000Y-123405888D01*
X117835000Y-123445888D02*
X116700000Y-123445888D01*
X114620000Y-123445888D02*
X113485000Y-123445888D01*
X117809000Y-123485888D02*
X116700000Y-123485888D01*
X114620000Y-123485888D02*
X113511000Y-123485888D01*
X117782000Y-123525888D02*
X116700000Y-123525888D01*
X114620000Y-123525888D02*
X113538000Y-123525888D01*
X117755000Y-123565888D02*
X116700000Y-123565888D01*
X114620000Y-123565888D02*
X113565000Y-123565888D01*
X117725000Y-123605888D02*
X116700000Y-123605888D01*
X114620000Y-123605888D02*
X113595000Y-123605888D01*
X117695000Y-123645888D02*
X116700000Y-123645888D01*
X114620000Y-123645888D02*
X113625000Y-123645888D01*
X117664000Y-123685888D02*
X116700000Y-123685888D01*
X114620000Y-123685888D02*
X113656000Y-123685888D01*
X117631000Y-123725888D02*
X116700000Y-123725888D01*
X114620000Y-123725888D02*
X113689000Y-123725888D01*
X117597000Y-123765888D02*
X116700000Y-123765888D01*
X114620000Y-123765888D02*
X113723000Y-123765888D01*
X117561000Y-123805888D02*
X116700000Y-123805888D01*
X114620000Y-123805888D02*
X113759000Y-123805888D01*
X117524000Y-123845888D02*
X116700000Y-123845888D01*
X114620000Y-123845888D02*
X113796000Y-123845888D01*
X117486000Y-123885888D02*
X116700000Y-123885888D01*
X114620000Y-123885888D02*
X113834000Y-123885888D01*
X117445000Y-123925888D02*
X116700000Y-123925888D01*
X114620000Y-123925888D02*
X113875000Y-123925888D01*
X117403000Y-123965888D02*
X116700000Y-123965888D01*
X114620000Y-123965888D02*
X113917000Y-123965888D01*
X117359000Y-124005888D02*
X116700000Y-124005888D01*
X114620000Y-124005888D02*
X113961000Y-124005888D01*
X117313000Y-124045888D02*
X116700000Y-124045888D01*
X114620000Y-124045888D02*
X114007000Y-124045888D01*
X117265000Y-124085888D02*
X116700000Y-124085888D01*
X114620000Y-124085888D02*
X114055000Y-124085888D01*
X117214000Y-124125888D02*
X116700000Y-124125888D01*
X114620000Y-124125888D02*
X114106000Y-124125888D01*
X117160000Y-124165888D02*
X116700000Y-124165888D01*
X114620000Y-124165888D02*
X114160000Y-124165888D01*
X117103000Y-124205888D02*
X116700000Y-124205888D01*
X114620000Y-124205888D02*
X114217000Y-124205888D01*
X117043000Y-124245888D02*
X116700000Y-124245888D01*
X114620000Y-124245888D02*
X114277000Y-124245888D01*
X116979000Y-124285888D02*
X116700000Y-124285888D01*
X114620000Y-124285888D02*
X114341000Y-124285888D01*
X116911000Y-124325888D02*
X116700000Y-124325888D01*
X114620000Y-124325888D02*
X114409000Y-124325888D01*
X116838000Y-124365888D02*
X114482000Y-124365888D01*
X116758000Y-124405888D02*
X114562000Y-124405888D01*
X116671000Y-124445888D02*
X114649000Y-124445888D01*
X116575000Y-124485888D02*
X114745000Y-124485888D01*
X116465000Y-124525888D02*
X114855000Y-124525888D01*
X116337000Y-124565888D02*
X114983000Y-124565888D01*
X116178000Y-124605888D02*
X115142000Y-124605888D01*
X115944000Y-124645888D02*
X115376000Y-124645888D01*
X118280000Y-122044888D02*
G75*
G03*
X118280000Y-122044888I-2620000J0D01*
G01*
%TO.C,R12*%
X114060000Y-128500000D02*
X114830000Y-128500000D01*
X114830000Y-127130000D02*
X114830000Y-129870000D01*
X114830000Y-129870000D02*
X121370000Y-129870000D01*
X121370000Y-127130000D02*
X114830000Y-127130000D01*
X121370000Y-129870000D02*
X121370000Y-127130000D01*
X122140000Y-128500000D02*
X121370000Y-128500000D01*
%TO.C,R10*%
X148780000Y-101000000D02*
X149550000Y-101000000D01*
X149550000Y-99630000D02*
X149550000Y-102370000D01*
X149550000Y-102370000D02*
X156090000Y-102370000D01*
X156090000Y-99630000D02*
X149550000Y-99630000D01*
X156090000Y-102370000D02*
X156090000Y-99630000D01*
X156860000Y-101000000D02*
X156090000Y-101000000D01*
%TO.C,C1*%
X143371000Y-80480000D02*
X144629000Y-80480000D01*
X143371000Y-82320000D02*
X144629000Y-82320000D01*
%TO.C,R19*%
X156940000Y-107600000D02*
X156170000Y-107600000D01*
X156170000Y-108970000D02*
X156170000Y-106230000D01*
X156170000Y-106230000D02*
X149630000Y-106230000D01*
X149630000Y-108970000D02*
X156170000Y-108970000D01*
X149630000Y-106230000D02*
X149630000Y-108970000D01*
X148860000Y-107600000D02*
X149630000Y-107600000D01*
%TO.C,R18*%
X148880000Y-104300000D02*
X149650000Y-104300000D01*
X149650000Y-102930000D02*
X149650000Y-105670000D01*
X149650000Y-105670000D02*
X156190000Y-105670000D01*
X156190000Y-102930000D02*
X149650000Y-102930000D01*
X156190000Y-105670000D02*
X156190000Y-102930000D01*
X156960000Y-104300000D02*
X156190000Y-104300000D01*
%TO.C,Y1*%
X126450000Y-98550000D02*
X126450000Y-103650000D01*
X126450000Y-103650000D02*
X139050000Y-103650000D01*
X139050000Y-98550000D02*
X126450000Y-98550000D01*
%TO.C,R8*%
X106440000Y-97000000D02*
X105670000Y-97000000D01*
X105670000Y-98370000D02*
X105670000Y-95630000D01*
X105670000Y-95630000D02*
X99130000Y-95630000D01*
X99130000Y-98370000D02*
X105670000Y-98370000D01*
X99130000Y-95630000D02*
X99130000Y-98370000D01*
X98360000Y-97000000D02*
X99130000Y-97000000D01*
%TO.C,R13*%
X114060000Y-138100000D02*
X114830000Y-138100000D01*
X114830000Y-136730000D02*
X114830000Y-139470000D01*
X114830000Y-139470000D02*
X121370000Y-139470000D01*
X121370000Y-136730000D02*
X114830000Y-136730000D01*
X121370000Y-139470000D02*
X121370000Y-136730000D01*
X122140000Y-138100000D02*
X121370000Y-138100000D01*
%TO.C,D4*%
X134100000Y-115960000D02*
X134100000Y-115310000D01*
X132980000Y-115310000D02*
X135220000Y-115310000D01*
X135220000Y-115310000D02*
X135220000Y-111070000D01*
X132980000Y-114710000D02*
X135220000Y-114710000D01*
X132980000Y-114590000D02*
X135220000Y-114590000D01*
X132980000Y-114470000D02*
X135220000Y-114470000D01*
X132980000Y-111070000D02*
X132980000Y-115310000D01*
X135220000Y-111070000D02*
X132980000Y-111070000D01*
X134100000Y-110420000D02*
X134100000Y-111070000D01*
%TO.C,D5*%
X139300000Y-115860000D02*
X139300000Y-116880000D01*
X140770000Y-116880000D02*
X137830000Y-116880000D01*
X137830000Y-116880000D02*
X137830000Y-122320000D01*
X140770000Y-117660000D02*
X137830000Y-117660000D01*
X140770000Y-117780000D02*
X137830000Y-117780000D01*
X140770000Y-117900000D02*
X137830000Y-117900000D01*
X140770000Y-122320000D02*
X140770000Y-116880000D01*
X137830000Y-122320000D02*
X140770000Y-122320000D01*
X139300000Y-123340000D02*
X139300000Y-122320000D01*
%TO.C,C2*%
X131261252Y-98035000D02*
X130738748Y-98035000D01*
X131261252Y-96565000D02*
X130738748Y-96565000D01*
%TO.C,K1*%
X151840000Y-114830000D02*
X153050000Y-114830000D01*
X151840000Y-116130000D02*
X151840000Y-114830000D01*
X152000000Y-114980000D02*
X152000000Y-135570000D01*
X152000000Y-135570000D02*
X162380000Y-135570000D01*
X155680000Y-114980000D02*
X155680000Y-116020000D01*
X155680000Y-116040000D02*
X158680000Y-116040000D01*
X156850000Y-116190000D02*
X156850000Y-117390000D01*
X156850000Y-116820000D02*
X155750000Y-116820000D01*
X156850000Y-116990000D02*
X157550000Y-116590000D01*
X156850000Y-117390000D02*
X157550000Y-117390000D01*
X157550000Y-116190000D02*
X156850000Y-116190000D01*
X157550000Y-116820000D02*
X158650000Y-116820000D01*
X157550000Y-117390000D02*
X157550000Y-116190000D01*
X158680000Y-116040000D02*
X158680000Y-114980000D01*
X162380000Y-114980000D02*
X152000000Y-114980000D01*
X162380000Y-135570000D02*
X162380000Y-114980000D01*
%TO.C,R9*%
X143000000Y-123440000D02*
X143000000Y-122670000D01*
X141630000Y-122670000D02*
X144370000Y-122670000D01*
X144370000Y-122670000D02*
X144370000Y-116130000D01*
X141630000Y-116130000D02*
X141630000Y-122670000D01*
X144370000Y-116130000D02*
X141630000Y-116130000D01*
X143000000Y-115360000D02*
X143000000Y-116130000D01*
%TO.C,R5*%
X120960000Y-89800000D02*
X120190000Y-89800000D01*
X120190000Y-91170000D02*
X120190000Y-88430000D01*
X120190000Y-88430000D02*
X113650000Y-88430000D01*
X113650000Y-91170000D02*
X120190000Y-91170000D01*
X113650000Y-88430000D02*
X113650000Y-91170000D01*
X112880000Y-89800000D02*
X113650000Y-89800000D01*
%TO.C,C13*%
X163271000Y-107780000D02*
X164529000Y-107780000D01*
X163271000Y-109620000D02*
X164529000Y-109620000D01*
%TO.C,R1*%
X128160000Y-128800000D02*
X128930000Y-128800000D01*
X128930000Y-127430000D02*
X128930000Y-130170000D01*
X128930000Y-130170000D02*
X135470000Y-130170000D01*
X135470000Y-127430000D02*
X128930000Y-127430000D01*
X135470000Y-130170000D02*
X135470000Y-127430000D01*
X136240000Y-128800000D02*
X135470000Y-128800000D01*
%TO.C,C14*%
X163271000Y-104980000D02*
X164529000Y-104980000D01*
X163271000Y-106820000D02*
X164529000Y-106820000D01*
%TO.C,C6*%
X121429000Y-84720000D02*
X120171000Y-84720000D01*
X121429000Y-82880000D02*
X120171000Y-82880000D01*
%TO.C,R17*%
X156760000Y-97500000D02*
X155990000Y-97500000D01*
X155990000Y-98870000D02*
X155990000Y-96130000D01*
X155990000Y-96130000D02*
X149450000Y-96130000D01*
X149450000Y-98870000D02*
X155990000Y-98870000D01*
X149450000Y-96130000D02*
X149450000Y-98870000D01*
X148680000Y-97500000D02*
X149450000Y-97500000D01*
%TO.C,C9*%
X125475000Y-119345225D02*
X125475000Y-119845225D01*
X125725000Y-119595225D02*
X125225000Y-119595225D01*
X126580000Y-122150000D02*
X121420000Y-122150000D01*
X126580000Y-122190000D02*
X121420000Y-122190000D01*
X126579000Y-122230000D02*
X121421000Y-122230000D01*
X126578000Y-122270000D02*
X121422000Y-122270000D01*
X126576000Y-122310000D02*
X121424000Y-122310000D01*
X126573000Y-122350000D02*
X121427000Y-122350000D01*
X126569000Y-122390000D02*
X125040000Y-122390000D01*
X122960000Y-122390000D02*
X121431000Y-122390000D01*
X126565000Y-122430000D02*
X125040000Y-122430000D01*
X122960000Y-122430000D02*
X121435000Y-122430000D01*
X126561000Y-122470000D02*
X125040000Y-122470000D01*
X122960000Y-122470000D02*
X121439000Y-122470000D01*
X126556000Y-122510000D02*
X125040000Y-122510000D01*
X122960000Y-122510000D02*
X121444000Y-122510000D01*
X126550000Y-122550000D02*
X125040000Y-122550000D01*
X122960000Y-122550000D02*
X121450000Y-122550000D01*
X126543000Y-122590000D02*
X125040000Y-122590000D01*
X122960000Y-122590000D02*
X121457000Y-122590000D01*
X126536000Y-122630000D02*
X125040000Y-122630000D01*
X122960000Y-122630000D02*
X121464000Y-122630000D01*
X126528000Y-122670000D02*
X125040000Y-122670000D01*
X122960000Y-122670000D02*
X121472000Y-122670000D01*
X126520000Y-122710000D02*
X125040000Y-122710000D01*
X122960000Y-122710000D02*
X121480000Y-122710000D01*
X126511000Y-122750000D02*
X125040000Y-122750000D01*
X122960000Y-122750000D02*
X121489000Y-122750000D01*
X126501000Y-122790000D02*
X125040000Y-122790000D01*
X122960000Y-122790000D02*
X121499000Y-122790000D01*
X126491000Y-122830000D02*
X125040000Y-122830000D01*
X122960000Y-122830000D02*
X121509000Y-122830000D01*
X126480000Y-122871000D02*
X125040000Y-122871000D01*
X122960000Y-122871000D02*
X121520000Y-122871000D01*
X126468000Y-122911000D02*
X125040000Y-122911000D01*
X122960000Y-122911000D02*
X121532000Y-122911000D01*
X126455000Y-122951000D02*
X125040000Y-122951000D01*
X122960000Y-122951000D02*
X121545000Y-122951000D01*
X126442000Y-122991000D02*
X125040000Y-122991000D01*
X122960000Y-122991000D02*
X121558000Y-122991000D01*
X126428000Y-123031000D02*
X125040000Y-123031000D01*
X122960000Y-123031000D02*
X121572000Y-123031000D01*
X126414000Y-123071000D02*
X125040000Y-123071000D01*
X122960000Y-123071000D02*
X121586000Y-123071000D01*
X126398000Y-123111000D02*
X125040000Y-123111000D01*
X122960000Y-123111000D02*
X121602000Y-123111000D01*
X126382000Y-123151000D02*
X125040000Y-123151000D01*
X122960000Y-123151000D02*
X121618000Y-123151000D01*
X126365000Y-123191000D02*
X125040000Y-123191000D01*
X122960000Y-123191000D02*
X121635000Y-123191000D01*
X126348000Y-123231000D02*
X125040000Y-123231000D01*
X122960000Y-123231000D02*
X121652000Y-123231000D01*
X126329000Y-123271000D02*
X125040000Y-123271000D01*
X122960000Y-123271000D02*
X121671000Y-123271000D01*
X126310000Y-123311000D02*
X125040000Y-123311000D01*
X122960000Y-123311000D02*
X121690000Y-123311000D01*
X126290000Y-123351000D02*
X125040000Y-123351000D01*
X122960000Y-123351000D02*
X121710000Y-123351000D01*
X126268000Y-123391000D02*
X125040000Y-123391000D01*
X122960000Y-123391000D02*
X121732000Y-123391000D01*
X126247000Y-123431000D02*
X125040000Y-123431000D01*
X122960000Y-123431000D02*
X121753000Y-123431000D01*
X126224000Y-123471000D02*
X125040000Y-123471000D01*
X122960000Y-123471000D02*
X121776000Y-123471000D01*
X126200000Y-123511000D02*
X125040000Y-123511000D01*
X122960000Y-123511000D02*
X121800000Y-123511000D01*
X126175000Y-123551000D02*
X125040000Y-123551000D01*
X122960000Y-123551000D02*
X121825000Y-123551000D01*
X126149000Y-123591000D02*
X125040000Y-123591000D01*
X122960000Y-123591000D02*
X121851000Y-123591000D01*
X126122000Y-123631000D02*
X125040000Y-123631000D01*
X122960000Y-123631000D02*
X121878000Y-123631000D01*
X126095000Y-123671000D02*
X125040000Y-123671000D01*
X122960000Y-123671000D02*
X121905000Y-123671000D01*
X126065000Y-123711000D02*
X125040000Y-123711000D01*
X122960000Y-123711000D02*
X121935000Y-123711000D01*
X126035000Y-123751000D02*
X125040000Y-123751000D01*
X122960000Y-123751000D02*
X121965000Y-123751000D01*
X126004000Y-123791000D02*
X125040000Y-123791000D01*
X122960000Y-123791000D02*
X121996000Y-123791000D01*
X125971000Y-123831000D02*
X125040000Y-123831000D01*
X122960000Y-123831000D02*
X122029000Y-123831000D01*
X125937000Y-123871000D02*
X125040000Y-123871000D01*
X122960000Y-123871000D02*
X122063000Y-123871000D01*
X125901000Y-123911000D02*
X125040000Y-123911000D01*
X122960000Y-123911000D02*
X122099000Y-123911000D01*
X125864000Y-123951000D02*
X125040000Y-123951000D01*
X122960000Y-123951000D02*
X122136000Y-123951000D01*
X125826000Y-123991000D02*
X125040000Y-123991000D01*
X122960000Y-123991000D02*
X122174000Y-123991000D01*
X125785000Y-124031000D02*
X125040000Y-124031000D01*
X122960000Y-124031000D02*
X122215000Y-124031000D01*
X125743000Y-124071000D02*
X125040000Y-124071000D01*
X122960000Y-124071000D02*
X122257000Y-124071000D01*
X125699000Y-124111000D02*
X125040000Y-124111000D01*
X122960000Y-124111000D02*
X122301000Y-124111000D01*
X125653000Y-124151000D02*
X125040000Y-124151000D01*
X122960000Y-124151000D02*
X122347000Y-124151000D01*
X125605000Y-124191000D02*
X125040000Y-124191000D01*
X122960000Y-124191000D02*
X122395000Y-124191000D01*
X125554000Y-124231000D02*
X125040000Y-124231000D01*
X122960000Y-124231000D02*
X122446000Y-124231000D01*
X125500000Y-124271000D02*
X125040000Y-124271000D01*
X122960000Y-124271000D02*
X122500000Y-124271000D01*
X125443000Y-124311000D02*
X125040000Y-124311000D01*
X122960000Y-124311000D02*
X122557000Y-124311000D01*
X125383000Y-124351000D02*
X125040000Y-124351000D01*
X122960000Y-124351000D02*
X122617000Y-124351000D01*
X125319000Y-124391000D02*
X125040000Y-124391000D01*
X122960000Y-124391000D02*
X122681000Y-124391000D01*
X125251000Y-124431000D02*
X125040000Y-124431000D01*
X122960000Y-124431000D02*
X122749000Y-124431000D01*
X125178000Y-124471000D02*
X122822000Y-124471000D01*
X125098000Y-124511000D02*
X122902000Y-124511000D01*
X125011000Y-124551000D02*
X122989000Y-124551000D01*
X124915000Y-124591000D02*
X123085000Y-124591000D01*
X124805000Y-124631000D02*
X123195000Y-124631000D01*
X124677000Y-124671000D02*
X123323000Y-124671000D01*
X124518000Y-124711000D02*
X123482000Y-124711000D01*
X124284000Y-124751000D02*
X123716000Y-124751000D01*
X126620000Y-122150000D02*
G75*
G03*
X126620000Y-122150000I-2620000J0D01*
G01*
%TO.C,SW2*%
X141300000Y-133650000D02*
X141300000Y-135150000D01*
X142550000Y-137650000D02*
X147050000Y-137650000D01*
X147050000Y-131150000D02*
X142550000Y-131150000D01*
X148300000Y-135150000D02*
X148300000Y-133650000D01*
%TD*%
M02*
