%TF.GenerationSoftware,KiCad,Pcbnew,7.0.6*%
%TF.CreationDate,2023-07-25T17:39:36+01:00*%
%TF.ProjectId,Coursework,436f7572-7365-4776-9f72-6b2e6b696361,rev?*%
%TF.SameCoordinates,Original*%
%TF.FileFunction,Soldermask,Top*%
%TF.FilePolarity,Negative*%
%FSLAX46Y46*%
G04 Gerber Fmt 4.6, Leading zero omitted, Abs format (unit mm)*
G04 Created by KiCad (PCBNEW 7.0.6) date 2023-07-25 17:39:36*
%MOMM*%
%LPD*%
G01*
G04 APERTURE LIST*
G04 Aperture macros list*
%AMRoundRect*
0 Rectangle with rounded corners*
0 $1 Rounding radius*
0 $2 $3 $4 $5 $6 $7 $8 $9 X,Y pos of 4 corners*
0 Add a 4 corners polygon primitive as box body*
4,1,4,$2,$3,$4,$5,$6,$7,$8,$9,$2,$3,0*
0 Add four circle primitives for the rounded corners*
1,1,$1+$1,$2,$3*
1,1,$1+$1,$4,$5*
1,1,$1+$1,$6,$7*
1,1,$1+$1,$8,$9*
0 Add four rect primitives between the rounded corners*
20,1,$1+$1,$2,$3,$4,$5,0*
20,1,$1+$1,$4,$5,$6,$7,0*
20,1,$1+$1,$6,$7,$8,$9,0*
20,1,$1+$1,$8,$9,$2,$3,0*%
G04 Aperture macros list end*
%ADD10R,1.700000X1.700000*%
%ADD11O,1.700000X1.700000*%
%ADD12C,1.600000*%
%ADD13O,1.600000X1.600000*%
%ADD14R,1.500000X1.050000*%
%ADD15O,1.500000X1.050000*%
%ADD16R,1.600000X1.600000*%
%ADD17RoundRect,0.250000X-0.337500X-0.475000X0.337500X-0.475000X0.337500X0.475000X-0.337500X0.475000X0*%
%ADD18C,5.600000*%
%ADD19R,1.600000X2.400000*%
%ADD20O,1.600000X2.400000*%
%ADD21R,1.050000X1.500000*%
%ADD22O,1.050000X1.500000*%
%ADD23R,0.550000X1.600000*%
%ADD24R,1.600000X0.550000*%
%ADD25R,2.400000X1.600000*%
%ADD26O,2.400000X1.600000*%
%ADD27R,1.905000X2.000000*%
%ADD28O,1.905000X2.000000*%
%ADD29C,2.000000*%
%ADD30R,4.500000X2.000000*%
%ADD31R,2.200000X2.200000*%
%ADD32O,2.200000X2.200000*%
%ADD33RoundRect,0.250000X0.337500X0.475000X-0.337500X0.475000X-0.337500X-0.475000X0.337500X-0.475000X0*%
%ADD34R,1.400000X1.400000*%
%ADD35C,1.400000*%
G04 APERTURE END LIST*
D10*
%TO.C,J7*%
X141720000Y-88400000D03*
D11*
X141720000Y-85860000D03*
X144260000Y-88400000D03*
X144260000Y-85860000D03*
X146800000Y-88400000D03*
X146800000Y-85860000D03*
%TD*%
D12*
%TO.C,C4*%
X145200000Y-93200000D03*
X142700000Y-93200000D03*
%TD*%
%TO.C,R2*%
X150480000Y-128800000D03*
D13*
X140320000Y-128800000D03*
%TD*%
D12*
%TO.C,R21*%
X107480000Y-103700000D03*
D13*
X97320000Y-103700000D03*
%TD*%
D14*
%TO.C,U5*%
X132160000Y-123370000D03*
D15*
X132160000Y-122100000D03*
X132160000Y-120830000D03*
%TD*%
D10*
%TO.C,J3*%
X92000000Y-101125000D03*
D11*
X92000000Y-98585000D03*
%TD*%
D16*
%TO.C,D7*%
X115300000Y-117000000D03*
D13*
X115300000Y-109380000D03*
%TD*%
D10*
%TO.C,J2*%
X92000000Y-82925000D03*
D11*
X92000000Y-85465000D03*
%TD*%
D16*
%TO.C,D1*%
X97990000Y-116500000D03*
D13*
X105610000Y-116500000D03*
%TD*%
D17*
%TO.C,C3*%
X134262500Y-97300000D03*
X136337500Y-97300000D03*
%TD*%
D10*
%TO.C,J4*%
X105100000Y-137300000D03*
D11*
X102560000Y-137300000D03*
%TD*%
D12*
%TO.C,R20*%
X158000000Y-111000000D03*
D13*
X147840000Y-111000000D03*
%TD*%
D18*
%TO.C,REF\u002A\u002A*%
X91000000Y-43500000D03*
%TD*%
D12*
%TO.C,C5*%
X129950000Y-106900000D03*
X132450000Y-106900000D03*
%TD*%
%TO.C,R7*%
X97380000Y-93650000D03*
D13*
X107540000Y-93650000D03*
%TD*%
D12*
%TO.C,R11*%
X146700000Y-114520000D03*
D13*
X146700000Y-124680000D03*
%TD*%
D19*
%TO.C,U4*%
X100100000Y-130975000D03*
D20*
X102640000Y-130975000D03*
X105180000Y-130975000D03*
X107720000Y-130975000D03*
X107720000Y-120815000D03*
X105180000Y-120815000D03*
X102640000Y-120815000D03*
X100100000Y-120815000D03*
%TD*%
D16*
%TO.C,D3*%
X129900000Y-117000000D03*
D13*
X129900000Y-109380000D03*
%TD*%
D16*
%TO.C,D2*%
X97990000Y-112300000D03*
D13*
X105610000Y-112300000D03*
%TD*%
D21*
%TO.C,Q1*%
X164460000Y-117600000D03*
D22*
X165730000Y-117600000D03*
X167000000Y-117600000D03*
%TD*%
D12*
%TO.C,C11*%
X162650000Y-100400000D03*
X165150000Y-100400000D03*
%TD*%
%TO.C,C12*%
X162650000Y-97800000D03*
X165150000Y-97800000D03*
%TD*%
D16*
%TO.C,D6*%
X111100000Y-117000000D03*
D13*
X111100000Y-109380000D03*
%TD*%
D23*
%TO.C,U8*%
X130540000Y-93470000D03*
X131340000Y-93470000D03*
X132140000Y-93470000D03*
X132940000Y-93470000D03*
X133740000Y-93470000D03*
X134540000Y-93470000D03*
X135340000Y-93470000D03*
X136140000Y-93470000D03*
D24*
X137590000Y-92020000D03*
X137590000Y-91220000D03*
X137590000Y-90420000D03*
X137590000Y-89620000D03*
X137590000Y-88820000D03*
X137590000Y-88020000D03*
X137590000Y-87220000D03*
X137590000Y-86420000D03*
D23*
X136140000Y-84970000D03*
X135340000Y-84970000D03*
X134540000Y-84970000D03*
X133740000Y-84970000D03*
X132940000Y-84970000D03*
X132140000Y-84970000D03*
X131340000Y-84970000D03*
X130540000Y-84970000D03*
D24*
X129090000Y-86420000D03*
X129090000Y-87220000D03*
X129090000Y-88020000D03*
X129090000Y-88820000D03*
X129090000Y-89620000D03*
X129090000Y-90420000D03*
X129090000Y-91220000D03*
X129090000Y-92020000D03*
%TD*%
D18*
%TO.C,REF\u002A\u002A*%
X166000000Y-74750000D03*
%TD*%
D16*
%TO.C,D9*%
X125700000Y-117000000D03*
D13*
X125700000Y-109380000D03*
%TD*%
D12*
%TO.C,C15*%
X165150000Y-103200000D03*
X162650000Y-103200000D03*
%TD*%
%TO.C,R14*%
X113020000Y-134900000D03*
D13*
X123180000Y-134900000D03*
%TD*%
D18*
%TO.C,REF\u002A\u002A*%
X166000000Y-43750000D03*
%TD*%
D25*
%TO.C,U1*%
X113475000Y-97500000D03*
D26*
X113475000Y-100040000D03*
X113475000Y-102580000D03*
X113475000Y-105120000D03*
X121095000Y-105120000D03*
X121095000Y-102580000D03*
X121095000Y-100040000D03*
X121095000Y-97500000D03*
%TD*%
D25*
%TO.C,U2*%
X151215000Y-86120000D03*
D26*
X151215000Y-88660000D03*
X151215000Y-91200000D03*
X151215000Y-93740000D03*
X158835000Y-93740000D03*
X158835000Y-91200000D03*
X158835000Y-88660000D03*
X158835000Y-86120000D03*
%TD*%
D27*
%TO.C,U3*%
X115580000Y-81500000D03*
D28*
X113040000Y-81500000D03*
X110500000Y-81500000D03*
%TD*%
D12*
%TO.C,R15*%
X123180000Y-131700000D03*
D13*
X113020000Y-131700000D03*
%TD*%
D12*
%TO.C,R16*%
X97320000Y-107000000D03*
D13*
X107480000Y-107000000D03*
%TD*%
D12*
%TO.C,R4*%
X111840000Y-86600000D03*
D13*
X122000000Y-86600000D03*
%TD*%
D10*
%TO.C,J1*%
X91025000Y-49300000D03*
D11*
X91025000Y-51840000D03*
X91025000Y-54380000D03*
X91025000Y-56920000D03*
%TD*%
D29*
%TO.C,SW1*%
X129780000Y-132200000D03*
X136280000Y-132200000D03*
X129780000Y-136700000D03*
X136280000Y-136700000D03*
%TD*%
D12*
%TO.C,R6*%
X97320000Y-100400000D03*
D13*
X107480000Y-100400000D03*
%TD*%
D16*
%TO.C,C7*%
X107800000Y-87000000D03*
D12*
X107800000Y-89500000D03*
%TD*%
D10*
%TO.C,J6*%
X165200000Y-92460000D03*
D11*
X165200000Y-89920000D03*
%TD*%
D12*
%TO.C,R3*%
X127720000Y-81500000D03*
D13*
X137880000Y-81500000D03*
%TD*%
D16*
%TO.C,D8*%
X119900000Y-117000000D03*
D13*
X119900000Y-109380000D03*
%TD*%
D16*
%TO.C,C8*%
X115660000Y-120794888D03*
D12*
X115660000Y-123294888D03*
%TD*%
%TO.C,R12*%
X113020000Y-128500000D03*
D13*
X123180000Y-128500000D03*
%TD*%
D12*
%TO.C,R10*%
X147740000Y-101000000D03*
D13*
X157900000Y-101000000D03*
%TD*%
D12*
%TO.C,C1*%
X142750000Y-81400000D03*
X145250000Y-81400000D03*
%TD*%
%TO.C,R19*%
X157980000Y-107600000D03*
D13*
X147820000Y-107600000D03*
%TD*%
D12*
%TO.C,R18*%
X147840000Y-104300000D03*
D13*
X158000000Y-104300000D03*
%TD*%
D30*
%TO.C,Y1*%
X128900000Y-101100000D03*
X137400000Y-101100000D03*
%TD*%
D12*
%TO.C,R8*%
X107480000Y-97000000D03*
D13*
X97320000Y-97000000D03*
%TD*%
D12*
%TO.C,R13*%
X113020000Y-138100000D03*
D13*
X123180000Y-138100000D03*
%TD*%
D16*
%TO.C,D4*%
X134100000Y-117000000D03*
D13*
X134100000Y-109380000D03*
%TD*%
D31*
%TO.C,D5*%
X139300000Y-114520000D03*
D32*
X139300000Y-124680000D03*
%TD*%
D33*
%TO.C,C2*%
X132037500Y-97300000D03*
X129962500Y-97300000D03*
%TD*%
D34*
%TO.C,K1*%
X153380000Y-116380000D03*
D35*
X153380000Y-124000000D03*
X153380000Y-129080000D03*
X153380000Y-134160000D03*
X161000000Y-134160000D03*
X161000000Y-129080000D03*
X161000000Y-124000000D03*
X161000000Y-116380000D03*
%TD*%
D12*
%TO.C,R9*%
X143000000Y-124480000D03*
D13*
X143000000Y-114320000D03*
%TD*%
D12*
%TO.C,R5*%
X122000000Y-89800000D03*
D13*
X111840000Y-89800000D03*
%TD*%
D12*
%TO.C,C13*%
X162650000Y-108700000D03*
X165150000Y-108700000D03*
%TD*%
%TO.C,R1*%
X127120000Y-128800000D03*
D13*
X137280000Y-128800000D03*
%TD*%
D18*
%TO.C,REF\u002A\u002A*%
X91000000Y-74500000D03*
%TD*%
D12*
%TO.C,C14*%
X162650000Y-105900000D03*
X165150000Y-105900000D03*
%TD*%
%TO.C,C6*%
X122050000Y-83800000D03*
X119550000Y-83800000D03*
%TD*%
%TO.C,R17*%
X157800000Y-97500000D03*
D13*
X147640000Y-97500000D03*
%TD*%
D16*
%TO.C,C9*%
X124000000Y-120900000D03*
D12*
X124000000Y-123400000D03*
%TD*%
D29*
%TO.C,SW2*%
X141550000Y-132150000D03*
X148050000Y-132150000D03*
X141550000Y-136650000D03*
X148050000Y-136650000D03*
%TD*%
M02*
