M48
; DRILL file {KiCad 7.0.6} date Tue Jul 25 17:39:40 2023
; FORMAT={-:-/ absolute / metric / decimal}
; #@! TF.CreationDate,2023-07-25T17:39:40+01:00
; #@! TF.GenerationSoftware,Kicad,Pcbnew,7.0.6
; #@! TF.FileFunction,Plated,1,2,PTH
FMAT,2
METRIC
; #@! TA.AperFunction,Plated,PTH,ViaDrill
T1C0.400
; #@! TA.AperFunction,Plated,PTH,ViaDrill
T2C0.550
; #@! TA.AperFunction,Plated,PTH,ComponentDrill
T3C0.700
; #@! TA.AperFunction,Plated,PTH,ComponentDrill
T4C0.750
; #@! TA.AperFunction,Plated,PTH,ComponentDrill
T5C0.800
; #@! TA.AperFunction,Plated,PTH,ComponentDrill
T6C1.000
; #@! TA.AperFunction,Plated,PTH,ComponentDrill
T7C1.100
; #@! TA.AperFunction,Plated,PTH,ComponentDrill
T8C3.200
%
G90
G05
T1
X90.661Y-47.425
X90.661Y-68.425
X90.661Y-78.925
X90.661Y-89.425
X90.661Y-103.425
X90.661Y-113.925
X90.661Y-124.425
X90.661Y-134.925
X97.661Y-75.425
X97.661Y-127.925
X97.661Y-138.425
X101.161Y-89.425
X101.161Y-99.925
X101.161Y-110.425
X104.661Y-71.925
X104.661Y-134.925
X108.161Y-113.925
X110.1Y-93.8
X111.661Y-75.425
X115.161Y-68.425
X115.161Y-131.425
X118.661Y-85.925
X118.661Y-96.425
X118.661Y-113.925
X118.661Y-138.425
X122.161Y-71.925
X122.161Y-106.925
X122.161Y-120.925
X123.9Y-106.2
X125.661Y-134.925
X126.497Y-88.048
X127.22Y-87.325
X129.161Y-68.425
X129.161Y-103.425
X130.6Y-89.7
X132.661Y-75.425
X132.661Y-138.425
X133.65Y-88.8
X136.161Y-106.925
X137.3Y-85.4
X139.339Y-87.269
X139.661Y-68.425
X139.661Y-120.925
X139.661Y-134.925
X143.161Y-43.925
X143.161Y-54.425
X143.161Y-75.425
X146.661Y-61.425
X146.661Y-127.925
X146.661Y-138.425
X150.161Y-47.425
X150.161Y-68.425
X150.161Y-82.425
X150.161Y-113.925
X153.661Y-54.425
X153.661Y-75.425
X153.661Y-131.425
X157.161Y-43.925
X157.161Y-61.425
X157.161Y-124.425
X157.161Y-138.425
X160.661Y-50.925
X160.661Y-68.425
X160.661Y-78.925
X164.161Y-57.925
X164.161Y-85.925
X164.161Y-127.925
T2
X94.4Y-101.4
X94.4Y-113.9
X127.0Y-107.3
X140.0Y-96.2
T3
X153.38Y-116.38
X153.38Y-124.0
X153.38Y-129.08
X153.38Y-134.16
X161.0Y-116.38
X161.0Y-124.0
X161.0Y-129.08
X161.0Y-134.16
T4
X132.16Y-120.83
X132.16Y-122.1
X132.16Y-123.37
X164.46Y-117.6
X165.73Y-117.6
X167.0Y-117.6
T5
X97.32Y-97.0
X97.32Y-100.4
X97.32Y-103.7
X97.32Y-107.0
X97.38Y-93.65
X97.99Y-112.3
X97.99Y-116.5
X100.1Y-120.815
X100.1Y-130.975
X102.64Y-120.815
X102.64Y-130.975
X105.18Y-120.815
X105.18Y-130.975
X105.61Y-112.3
X105.61Y-116.5
X107.48Y-97.0
X107.48Y-100.4
X107.48Y-103.7
X107.48Y-107.0
X107.54Y-93.65
X107.72Y-120.815
X107.72Y-130.975
X107.8Y-87.0
X107.8Y-89.5
X111.1Y-109.38
X111.1Y-117.0
X111.84Y-86.6
X111.84Y-89.8
X113.02Y-128.5
X113.02Y-131.7
X113.02Y-134.9
X113.02Y-138.1
X113.475Y-97.5
X113.475Y-100.04
X113.475Y-102.58
X113.475Y-105.12
X115.3Y-109.38
X115.3Y-117.0
X115.66Y-120.795
X115.66Y-123.295
X119.55Y-83.8
X119.9Y-109.38
X119.9Y-117.0
X121.095Y-97.5
X121.095Y-100.04
X121.095Y-102.58
X121.095Y-105.12
X122.0Y-86.6
X122.0Y-89.8
X122.05Y-83.8
X123.18Y-128.5
X123.18Y-131.7
X123.18Y-134.9
X123.18Y-138.1
X124.0Y-120.9
X124.0Y-123.4
X125.7Y-109.38
X125.7Y-117.0
X127.12Y-128.8
X127.72Y-81.5
X129.9Y-109.38
X129.9Y-117.0
X129.95Y-106.9
X132.45Y-106.9
X134.1Y-109.38
X134.1Y-117.0
X137.28Y-128.8
X137.88Y-81.5
X140.32Y-128.8
X142.7Y-93.2
X142.75Y-81.4
X143.0Y-114.32
X143.0Y-124.48
X145.2Y-93.2
X145.25Y-81.4
X146.7Y-114.52
X146.7Y-124.68
X147.64Y-97.5
X147.74Y-101.0
X147.82Y-107.6
X147.84Y-104.3
X147.84Y-111.0
X150.48Y-128.8
X151.215Y-86.12
X151.215Y-88.66
X151.215Y-91.2
X151.215Y-93.74
X157.8Y-97.5
X157.9Y-101.0
X157.98Y-107.6
X158.0Y-104.3
X158.0Y-111.0
X158.835Y-86.12
X158.835Y-88.66
X158.835Y-91.2
X158.835Y-93.74
X162.65Y-97.8
X162.65Y-100.4
X162.65Y-103.2
X162.65Y-105.9
X162.65Y-108.7
X165.15Y-97.8
X165.15Y-100.4
X165.15Y-103.2
X165.15Y-105.9
X165.15Y-108.7
T6
X91.025Y-49.3
X91.025Y-51.84
X91.025Y-54.38
X91.025Y-56.92
X92.0Y-82.925
X92.0Y-85.465
X92.0Y-98.585
X92.0Y-101.125
X102.56Y-137.3
X105.1Y-137.3
X141.72Y-85.86
X141.72Y-88.4
X144.26Y-85.86
X144.26Y-88.4
X146.8Y-85.86
X146.8Y-88.4
X165.2Y-89.92
X165.2Y-92.46
T7
X110.5Y-81.5
X113.04Y-81.5
X115.58Y-81.5
X129.78Y-132.2
X129.78Y-136.7
X136.28Y-132.2
X136.28Y-136.7
X139.3Y-114.52
X139.3Y-124.68
X141.55Y-132.15
X141.55Y-136.65
X148.05Y-132.15
X148.05Y-136.65
T8
X91.0Y-43.5
X91.0Y-74.5
X166.0Y-43.75
X166.0Y-74.75
T0
M30
